<?xml version="1.0" encoding="utf-8"?>
<!-- Generator: Adobe Illustrator 23.0.5, SVG Export Plug-In . SVG Version: 6.00 Build 0)  -->
<svg version="1.1" xmlns="http://www.w3.org/2000/svg" xmlns:xlink="http://www.w3.org/1999/xlink" x="0px" y="0px"
	 viewBox="0 0 500 500" style="enable-background:new 0 0 500 500;" xml:space="preserve">
<style type="text/css">
	.st0{display:none;}
	.st1{display:inline;fill:url(#SVGID_1_);}
	.st2{display:none;opacity:0.6;}
	.st3{display:inline;opacity:0;fill:#5A5A59;}
	.st4{display:inline;opacity:0.0909;fill:#5A5A59;}
	.st5{display:inline;opacity:0.1818;fill:#5A5A59;}
	.st6{display:inline;opacity:0.2727;fill:#5A5A59;}
	.st7{display:inline;opacity:0.3636;fill:#5A5A59;}
	.st8{display:inline;opacity:0.4545;fill:#5A5A59;}
	.st9{display:inline;opacity:0.5455;fill:#5A5A59;}
	.st10{display:inline;opacity:0.6364;fill:#5A5A59;}
	.st11{display:inline;opacity:0.7273;fill:#5A5A59;}
	.st12{display:inline;opacity:0.8182;fill:#5A5A59;}
	.st13{display:inline;opacity:0.9091;fill:#5A5A59;}
	.st14{display:inline;fill:#5A5A59;}
	.st15{fill:url(#SVGID_2_);}
	.st16{fill:#004F6A;}
	.st17{fill:#002141;}
	.st18{fill:#FFFFFF;}
	.st19{fill:#E8C0A8;}
	.st20{fill:#D7D7D7;}
	.st21{fill:#2D2A25;}
	.st22{fill:#EFEDED;}
	.st23{fill:#EAE7E4;}
	.st24{fill:#00283E;}
	.st25{fill:#071A29;}
	.st26{fill:#333232;}
	.st27{fill:#1D1D1B;}
	.st28{fill:#454444;}
	.st29{fill:#6B686C;}
	.st30{fill:#CF9F82;}
	.st31{fill:#E9E9E9;}
	.st32{fill:#D0904B;}
	.st33{fill:#003C48;}
	.st34{fill:url(#SVGID_3_);}
	.st35{fill:url(#SVGID_4_);}
	.st36{fill:none;stroke:#4B2B19;stroke-width:0.3086;stroke-miterlimit:10;}
	.st37{fill:#A56052;}
	.st38{fill:none;stroke:#FFFFFF;stroke-width:0.5;stroke-linecap:round;stroke-miterlimit:10;}
	.st39{fill:none;stroke:#FFFFFF;stroke-width:0.3562;stroke-linecap:round;stroke-miterlimit:10;}
	.st40{display:inline;}
	.st41{fill:#A5B7C6;}
</style>
<g id="BACKGROUND" class="st0">
	<radialGradient id="SVGID_1_" cx="248.724" cy="251.013" r="405.8051" gradientUnits="userSpaceOnUse">
		<stop  offset="0" style="stop-color:#FFFFFF"/>
		<stop  offset="0.2788" style="stop-color:#FBFBFB"/>
		<stop  offset="0.5606" style="stop-color:#EFEFEF"/>
		<stop  offset="0.8428" style="stop-color:#DBDBDB"/>
		<stop  offset="1" style="stop-color:#CCCCCC"/>
	</radialGradient>
	<rect class="st1" width="500" height="500"/>
</g>
<g id="OBJECTS">
	<g>
		<g class="st2">
			<path class="st3" d="M244.74,159.81H9.39c-1.93,0-3.5-1.57-3.5-3.5V7.63c0-1.93,1.57-3.5,3.5-3.5h235.35c1.93,0,3.5,1.57,3.5,3.5
				v148.67C248.24,158.24,246.68,159.81,244.74,159.81z"/>
			<path class="st4" d="M244.21,159.29H8.86c-1.93,0-3.5-1.57-3.5-3.5V7.12c0-1.93,1.57-3.5,3.5-3.5h235.35c1.93,0,3.5,1.57,3.5,3.5
				v148.67C247.71,157.72,246.14,159.29,244.21,159.29z"/>
			<path class="st5" d="M243.67,158.77H8.32c-1.93,0-3.5-1.57-3.5-3.5V6.6c0-1.93,1.57-3.5,3.5-3.5h235.35c1.93,0,3.5,1.57,3.5,3.5
				v148.67C247.17,157.21,245.6,158.77,243.67,158.77z"/>
			<path class="st6" d="M243.13,158.26H7.79c-1.93,0-3.5-1.57-3.5-3.5V6.08c0-1.93,1.57-3.5,3.5-3.5h235.35c1.93,0,3.5,1.57,3.5,3.5
				v148.67C246.63,156.69,245.07,158.26,243.13,158.26z"/>
			<path class="st7" d="M242.6,157.74H7.25c-1.93,0-3.5-1.57-3.5-3.5V5.57c0-1.93,1.57-3.5,3.5-3.5H242.6c1.93,0,3.5,1.57,3.5,3.5
				v148.67C246.1,156.17,244.53,157.74,242.6,157.74z"/>
			<path class="st8" d="M242.06,157.23H6.72c-1.93,0-3.5-1.57-3.5-3.5V5.05c0-1.93,1.57-3.5,3.5-3.5h235.35c1.93,0,3.5,1.57,3.5,3.5
				v148.67C245.56,155.66,244,157.23,242.06,157.23z"/>
			<path class="st9" d="M241.53,156.71H6.18c-1.93,0-3.5-1.57-3.5-3.5V4.53c0-1.93,1.57-3.5,3.5-3.5h235.35c1.93,0,3.5,1.57,3.5,3.5
				v148.67C245.03,155.14,243.46,156.71,241.53,156.71z"/>
			<path class="st10" d="M240.99,156.19H5.64c-1.93,0-3.5-1.57-3.5-3.5V4.02c0-1.93,1.57-3.5,3.5-3.5h235.35
				c1.93,0,3.5,1.57,3.5,3.5v148.67C244.49,154.63,242.92,156.19,240.99,156.19z"/>
			<path class="st11" d="M240.46,155.68H5.11c-1.93,0-3.5-1.57-3.5-3.5V3.5c0-1.93,1.57-3.5,3.5-3.5h235.35c1.93,0,3.5,1.57,3.5,3.5
				v148.67C243.96,154.11,242.39,155.68,240.46,155.68z"/>
			<path class="st12" d="M239.92,155.16H4.57c-1.93,0-3.5-1.57-3.5-3.5V2.99c0-1.93,1.57-3.5,3.5-3.5h235.35
				c1.93,0,3.5,1.57,3.5,3.5v148.67C243.42,153.59,241.85,155.16,239.92,155.16z"/>
			<path class="st13" d="M239.38,154.64H4.04c-1.93,0-3.5-1.57-3.5-3.5V2.47c0-1.93,1.57-3.5,3.5-3.5h235.35
				c1.93,0,3.5,1.57,3.5,3.5v148.67C242.88,153.08,241.32,154.64,239.38,154.64z"/>
			<path class="st14" d="M238.85,154.13H3.5c-1.93,0-3.5-1.57-3.5-3.5V1.95c0-1.93,1.57-3.5,3.5-3.5h235.35c1.93,0,3.5,1.57,3.5,3.5
				v148.67C242.35,152.56,240.78,154.13,238.85,154.13z"/>
		</g>
		<g>
			<linearGradient id="SVGID_2_" gradientUnits="userSpaceOnUse" x1="-33.4155" y1="330.1317" x2="387.6524" y2="34.809">
				<stop  offset="0" style="stop-color:#003279"/>
				<stop  offset="1" style="stop-color:#0097A6"/>
			</linearGradient>
			<path class="st15" d="M496.5,264.25H3.5c-1.93,0-3.5-1.57-3.5-3.5V1.95c0-1.93,1.57-3.5,3.5-3.5h493c1.93,0,3.5,1.57,3.5,3.5
				v258.8C500,262.69,498.43,264.25,496.5,264.25z"/>
			<g>
				<polygon class="st16" points="433.61,138.19 356.29,138.19 378.86,157.35 329.83,198.97 362.02,226.3 411.04,184.67 
					433.61,203.83 				"/>
				<polygon class="st17" points="351.26,165.1 318,165.1 327.71,173.34 306.62,191.24 320.46,202.99 341.55,185.09 351.26,193.33 
									"/>
				<polygon class="st17" points="477.39,130.91 459.34,130.91 464.61,135.38 453.17,145.1 460.68,151.47 472.12,141.76 
					477.39,146.23 				"/>
				<polygon class="st17" points="442.33,222.72 434.73,222.72 436.95,224.61 432.13,228.7 435.29,231.39 440.11,227.3 
					442.33,229.18 				"/>
				<polygon class="st17" points="435.03,117.88 427.42,117.88 429.64,119.76 424.82,123.86 427.98,126.55 432.81,122.45 
					435.03,124.34 				"/>
				<polygon class="st17" points="389.75,173.68 379.21,173.68 382.28,176.29 375.6,181.97 379.99,185.69 386.67,180.02 
					389.75,182.63 				"/>
				<polygon class="st16" points="477.39,180.97 453.72,180.97 460.63,186.84 445.62,199.58 455.47,207.95 470.48,195.2 
					477.39,201.07 				"/>
				<polygon class="st16" points="326.04,213.3 318.18,213.3 320.47,215.25 315.49,219.48 318.76,222.26 323.75,218.03 
					326.04,219.98 				"/>
				<polygon class="st16" points="291.82,191.26 274.11,191.26 279.28,195.65 268.05,205.18 275.42,211.44 286.65,201.91 
					291.82,206.3 				"/>
				<polygon class="st18" points="415.99,167.04 410.05,167.04 411.79,168.51 408.02,171.71 410.49,173.8 414.26,170.61 
					415.99,172.08 				"/>
				<polygon class="st18" points="382.92,227.53 376.99,227.53 378.72,229 374.95,232.19 377.42,234.29 381.19,231.1 382.92,232.57 
									"/>
				<polygon class="st18" points="498.12,159.2 484.9,159.2 488.76,162.48 480.38,169.6 485.88,174.27 494.26,167.15 498.12,170.43 
									"/>
				<polygon class="st18" points="333.89,128 320.86,128 324.67,131.23 316.4,138.25 321.83,142.85 330.09,135.84 333.89,139.06 
									"/>
				<g>
					<g>
						<path class="st19" d="M407.53,95.78L407.53,95.78c0,0,0.84,0.28,1.21,0.73c0.36,0.45,0.69,1.01,0.9,1.48
							c0.42,0.97,0.53,1.92,0.61,2.1c0.08,0.18-0.19,0.48-0.53,0.4c-0.33-0.07-0.62-1.06-0.69-1.28c-0.13-0.37-0.15-0.76-0.31-0.61
							s-0.12,0.96-0.12,1.34c0,0.39-0.02,1.47-0.14,2.14c-0.09,0.47-0.3,0.8-0.54,0.75c-0.25-0.05-0.37-0.43-0.34-0.72
							c0.03-0.29,0.14-2.09,0.11-2.16c-0.04-0.13-0.19,2.68-0.29,2.98c-0.1,0.3-0.82,0.5-0.88-0.21c-0.06-0.7,0.1-2.81,0.08-2.84
							c-0.04-0.09-0.22,2.38-0.28,2.65c-0.06,0.28-0.55,0.49-0.71,0.05c-0.16-0.44,0.06-2.84,0.04-2.92
							c-0.04-0.17-0.13,0.46-0.17,0.93c-0.05,0.53-0.12,1.06-0.33,1.13c-0.33,0.12-0.54-0.2-0.45-0.92
							c0.09-0.72,0.05-2.35,0.05-2.73c0.01-0.37,0.33-1.35,0.43-1.6c0-0.12,0-0.17-0.01-0.3c-0.03-0.28,0.12-0.39,0.45-0.47
							l1.06-0.28C407.04,95.34,407.42,95.49,407.53,95.78z"/>
						<path class="st20" d="M408.64,95.47c0.11-0.52-0.32-9.47-0.66-12.98c-0.48-4.95-1.24-9.14-2.26-12.15
							c-1.22-3.58-3.54-4.19-4.44-4.1c-2.51,0.26-0.76,2.17-1.13,4.84c-0.21,1.53,3.66,9.88,3.67,10.95
							c0.01,1.07,0.85,12.29,0.86,13.51C404.76,95.87,408.58,95.75,408.64,95.47z"/>
					</g>
					<g>
						<g>
							<path class="st21" d="M410.6,135.01c0,0-3.21-1.31-3.77-2.26c0,0-1.78,0-2.27,1.5c0,0-2.43,0.36-3.66-0.86l-0.3,3.9
								l14.58-0.01C414.77,136.39,414.45,135.42,410.6,135.01z"/>
							<path class="st21" d="M400.89,133.39c0.25,0.25,0.53,0.44,0.84,0.55c0.36,0.79,1.03,2.27,2.1,3.35l-3.24,0L400.89,133.39z"/>
							<path class="st22" d="M400.59,137.3l-0.08,0.9l14.73-0.01c0.02-0.36,0.11-0.54-0.08-0.9L400.59,137.3z"/>
						</g>
					</g>
					<g>
						<g>
							<path class="st21" d="M393.23,136.66l-0.72-2.38c0,0-0.68-1.63-2.76-1.63c-2.08,0-2.76,1.63-2.76,1.63l-0.51,2.66
								L393.23,136.66z"/>
						</g>
						<g>
							<path class="st23" d="M393.51,137.32c0.04,0.18,0.05,0.51-0.21,0.84h-6.7c0,0-0.23-0.36-0.22-0.85L393.51,137.32z"/>
							<path class="st21" d="M386.37,137.28c0.04-0.52,1.32-2.09,3.46-2.09c2.74,0,3.37,1.32,3.62,2c0,0,0.03,0.06,0.05,0.15
								l-7.13-0.01C386.37,137.32,386.37,137.3,386.37,137.28z"/>
						</g>
					</g>
					<path class="st24" d="M407.87,92.27l0.26,41.23c0,0-3.8,1.62-7.38,0.35l-1.37-34.32l-1.06-0.04l-5.17,34.37
						c0,0-2.74,1.04-6.77-0.22l4.1-41.37H407.87z"/>
					<path class="st25" d="M390.47,92.27h17.43v5.76c-1.43,0.53-4.32,1.39-8.48,2.01l-0.04-0.5l-1.06-0.04l-0.12,0.71
						c-2.42,0.31-5.26,0.53-8.49,0.58L390.47,92.27z"/>
					<g>
						<path class="st26" d="M395.22,117.67h-18.51c-1.24,0-2.24-1-2.24-2.24v-8.81h22.98v8.81
							C397.45,116.67,396.45,117.67,395.22,117.67z"/>
						<path class="st27" d="M394.93,109.25h-17.94c-1.39,0-2.52-1.13-2.52-2.52v-1.24c0-1.39,1.13-2.52,2.52-2.52h17.94
							c1.39,0,2.52,1.13,2.52,2.52v1.24C397.45,108.12,396.33,109.25,394.93,109.25z"/>
						<path class="st28" d="M394.93,108.87h-17.94c-1.39,0-2.52-1.13-2.52-2.52v-1.24c0-1.39,1.13-2.52,2.52-2.52h17.94
							c1.39,0,2.52,1.13,2.52,2.52v1.24C397.45,107.74,396.33,108.87,394.93,108.87z"/>
						<path class="st28" d="M385.96,106.77c-2.27,0-4.12-1.57-4.12-3.5c0-1.93,1.85-3.5,4.12-3.5c2.27,0,4.12,1.57,4.12,3.5
							C390.08,105.2,388.24,106.77,385.96,106.77z M385.96,100.9c-1.54,0-2.8,1.07-2.8,2.38c0,1.31,1.26,2.38,2.8,2.38
							s2.8-1.07,2.8-2.38C388.76,101.96,387.5,100.9,385.96,100.9z"/>
						<path class="st29" d="M386.87,110.21h-1.97c-0.3,0-0.55-0.25-0.55-0.55v-0.71c0-0.3,0.25-0.55,0.55-0.55h1.97
							c0.3,0,0.55,0.25,0.55,0.55v0.71C387.43,109.96,387.18,110.21,386.87,110.21z"/>
						<path class="st28" d="M397.02,111.6c0,0,0,4.25,0,4.73c0,0.49-0.41,1.13-1.53,1.13c-1.12,0-6.42,0-6.42,0s5.76-0.25,6.19-0.31
							c0.43-0.06,1.19-0.31,1.28-0.93C396.64,115.6,397.02,111.6,397.02,111.6z"/>
					</g>
					<g>
						<path class="st19" d="M399.72,64.6l0.07,2.74l-4.28,0.12l-0.09-3.56C397.22,64.77,398.99,64.7,399.72,64.6z"/>
						<path class="st30" d="M395.42,63.91l-0.07-2.74l4.28-0.12l0.09,3.57C398.99,64.7,397.22,64.77,395.42,63.91z"/>
					</g>
					<path class="st19" d="M397.95,67.96c-2.53,0-3.14-1.49-3.23-1.95c1.8-0.38,3.58-0.54,5.79-0.22
						C400.57,66.33,400.44,67.96,397.95,67.96z"/>
					<path class="st31" d="M391.4,66.66c0.41-0.22,1.75-0.65,2.24-0.74c0.16-0.03,1.71-0.11,1.87-0.14
						c0.11,0.47,1.82,1.63,2.99,1.65c1.91,0.03,1.83-1.14,1.77-1.68c0.23,0.03,0.46-0.1,0.67-0.01c0.9,0.4,3.36,2.57,4.81,7.27
						c1.15,3.71,3.53,12.26,2.79,22.16c0,0-7.52,2.3-19.6,0.34c0,0,0.7-21.87,0.92-24.21C390.08,68.96,390.14,67.34,391.4,66.66z"/>
					<path class="st24" d="M397.81,68.8l1.18,0.62l2.83,19.76l1.74,2.6c0,0,1.56-2.34,1.46-2.98c-0.09-0.64-4.28-18.33-5.01-19.5
						c0.28-0.43,0.55-0.91,0.55-0.91s-1.25-1.48-1.65-1.46C398.52,66.95,397.81,68.8,397.81,68.8z"/>
					<g>
						<path class="st19" d="M386.95,96.95L386.95,96.95c0,0,0.83,0.34,1.16,0.81c0.33,0.48,0.62,1.06,0.78,1.56
							c0.34,1.01,0.37,1.98,0.44,2.17c0.07,0.19-0.24,0.47-0.57,0.38c-0.33-0.09-0.53-1.12-0.59-1.34c-0.1-0.38-0.09-0.78-0.26-0.64
							c-0.17,0.14-0.14,0.8-0.21,1.22c-0.02,0.11-0.05,0.29-0.06,0.37c-0.09,0.43-0.2,0.39-0.55,0.35
							c-0.25-0.03-0.42-0.08-0.38-0.37c0.01-0.09,0.06-0.19,0.04-0.26c-0.03,0.1-0.06,0.21-0.13,0.35
							c-0.15,0.29-0.93,0.31-0.94-0.13c-0.02-0.21-0.02-0.4-0.02-0.36c-0.01,0.1-0.04,0.21-0.09,0.43
							c-0.06,0.28-0.86,0.42-0.88-0.05c-0.01-0.31,0.03-0.58,0.02-0.66c-0.06,0.19-0.06,0.42-0.09,0.57
							c-0.05,0.25-0.06,0.38-0.26,0.4c-0.2,0.01-0.44,0.02-0.44-0.11c-0.16-0.84-0.03-2.14,0.01-2.52c0.04-0.38,0.45-1.35,0.57-1.59
							c0.01-0.12,0.02-0.17,0.01-0.3c-0.01-0.28,0.16-0.38,0.5-0.45l1.1-0.22C386.48,96.47,386.86,96.65,386.95,96.95z"/>
						<path class="st18" d="M388.11,97.76c0.16-0.52,2.27-13.53,2.49-14.72c0.22-1.19,2.6-8.18,3.64-11.24
							c0.75-2.19,0.1-4.74-2.18-5.08c-2.53-0.38-4.42,1.56-5.02,4.25c-0.35,1.54-2.6,10.72-2.68,11.81
							c-0.08,1.08-0.17,13.58-0.26,14.81C384.14,97.93,388.03,98.04,388.11,97.76z"/>
					</g>
					<path class="st18" d="M395.42,65.46c-1.03,0.15-2.23,0.55-2.23,0.55s1.99,2.45,4.21,3.88c0.87-1.15,1.6-3.02,1.6-3.02
						S396.74,66.54,395.42,65.46z"/>
					<path class="st18" d="M398.88,66.95l1.93,2.08c0,0,0.92-1.83,0.13-3.28c-0.29-0.12-1.19-0.32-1.19-0.32
						S399.63,66.51,398.88,66.95z"/>
					<g>
						<path class="st19" d="M394.27,63.11c0,0,11.16,1.49,12.65-1.2c0.23-0.41-0.07-3.1-0.41-5.02c-0.49-2.83-1.66-6.36-3.47-8.34
							c-2.99-3.28-10.52-6.64-14.1-3.93C385.38,47.33,378.38,55.54,394.27,63.11z"/>
						<path class="st19" d="M402.85,52.25c-0.01,0-0.01,0-0.02,0l-0.01-0.54c1.67,0.69,3.4,1,5.04,1.39c-1.53,3-5.05,2.01-5.69-0.76
							C402.42,52.26,402.7,52.25,402.85,52.25C403.04,52.27,403,52.26,402.85,52.25z"/>
						<path class="st32" d="M398.25,45.03l0.59,0.19C398.71,45.24,398.5,45.16,398.25,45.03z"/>
						<path class="st33" d="M393.61,57.13c0.48,1.91,1.74,5.7,0.51,6.85c-2.77-0.84-6.28-2.31-8.55-3.93
							c-2.21-1.58-5.43-5.41-3.31-9.27c1.8-4.08,2.85-5.08,4.63-5.83c1.44-0.6,4.41-1.59,6.51-1.5c0.97,0.05,2,0.2,2.91,0.47
							c0.53,0.15,1.44,0.83,2.08,1.17l-0.29-0.09c-0.81,1.23-4.67,0.66-4.91,2.09c-0.28,1.66,2.88,5.22,2.85,6.89
							C396.03,55.4,393.78,55.27,393.61,57.13z"/>
						<path class="st19" d="M392.63,56.53c1.02,1.03,3.14,1.74,3.94,1.17c0.79-0.57,0.61-1.86-0.41-2.89
							c-1.02-1.03-2.79-2.15-3.8-1.34C391.61,54.08,391.61,55.5,392.63,56.53z"/>
						<path class="st33" d="M388.77,44.34c-0.99,0.29-0.85,0.57,0.13,1.22c0.66,0.43,3.35,2.34,4.05,1.91l0.43,0.27
							c1.29-0.12,2.83-0.57,4.05-0.95c0.68-0.21,2.07-0.55,2.68-0.96c1.48-0.97,2.19-5.31,0.38-5.78c-1.81-0.47-2.29,1.26-2.29,1.26
							s1.19-2.09-0.96-2.25c-2.15-0.16-2.15,2.39-2.15,2.39s0.09-0.48-0.35-0.48c-0.44,0.01-0.07,0.57-0.68,1.04
							C392.09,43.54,390.31,43.88,388.77,44.34z"/>
						<g>
							
								<linearGradient id="SVGID_3_" gradientUnits="userSpaceOnUse" x1="-13731.2852" y1="-3340.4084" x2="-13730.9063" y2="-3338" gradientTransform="matrix(0.9421 -0.3353 0.3353 0.9421 14457.6123 -1406.7148)">
								<stop  offset="0" style="stop-color:#C9926A"/>
								<stop  offset="1" style="stop-color:#C9926A;stop-opacity:0"/>
							</linearGradient>
							<path class="st34" d="M402.51,49.55c0.36,0.5,1.62,2.32-0.08,3.11c-1.7,0.79-2.4-1.72-2.4-1.72S401.74,49.92,402.51,49.55z"
								/>
							
								<linearGradient id="SVGID_4_" gradientUnits="userSpaceOnUse" x1="-14027.6318" y1="-2344.5215" x2="-14024.8184" y2="-2344.5215" gradientTransform="matrix(0.9777 -0.21 0.21 0.9777 14607.0635 -602.9921)">
								<stop  offset="0" style="stop-color:#502F26"/>
								<stop  offset="1" style="stop-color:#3B221D"/>
							</linearGradient>
							<path class="st35" d="M402.03,49.58c-1.92,0.67-2.87,1.99-1.15,1.27C402.6,50.13,403.04,49.22,402.03,49.58z"/>
							<path class="st36" d="M401.78,52.7c0.07-1.04,1.34-1.13,1.68-0.39"/>
						</g>
						<g>
							<path class="st37" d="M401.04,57.79c-0.09,0.38,0.17,0.73,0.43,0.95c0.28,0.23,0.63,0.37,0.99,0.43
								c0.36,0.09,0.74,0.06,1.11,0.06c0.38-0.03,0.75-0.08,1.14-0.13l-0.55,0.19l-0.57,0.12c-0.39,0.04-0.78,0.07-1.18-0.01
								c-0.39-0.08-0.78-0.24-1.07-0.52C401.07,58.6,400.85,58.16,401.04,57.79z"/>
						</g>
					</g>
				</g>
				<line class="st38" x1="378.72" y1="243.88" x2="417.8" y2="210.7"/>
				<line class="st39" x1="452.03" y1="171.88" x2="479.87" y2="148.24"/>
				<line class="st39" x1="278.84" y1="178.82" x2="306.68" y2="155.18"/>
				<line class="st39" x1="303.68" y1="162.05" x2="317.11" y2="150.64"/>
				<line class="st39" x1="476.53" y1="156.94" x2="489.97" y2="145.53"/>
				<line class="st39" x1="418.53" y1="85.09" x2="446.38" y2="61.45"/>
				<line class="st39" x1="443.03" y1="70.16" x2="456.47" y2="58.75"/>
				<line class="st39" x1="348.41" y1="96.54" x2="361.85" y2="85.13"/>
				<line class="st39" x1="439.89" y1="129.4" x2="453.32" y2="118"/>
				<line class="st39" x1="400.02" y1="232.19" x2="413.46" y2="220.79"/>
				<line class="st39" x1="346.09" y1="132.65" x2="359.53" y2="121.24"/>
				<line class="st39" x1="348.09" y1="128.66" x2="361.52" y2="117.25"/>
				<path class="st39" d="M457.6,93.36c0,0.67-0.64,1.21-1.43,1.21c-0.79,0-1.43-0.54-1.43-1.21s0.64-1.21,1.43-1.21
					C456.96,92.14,457.6,92.69,457.6,93.36z"/>
				<path class="st39" d="M337.11,63c0,0.5-0.48,0.91-1.07,0.91c-0.59,0-1.07-0.41-1.07-0.91c0-0.5,0.48-0.91,1.07-0.91
					C336.63,62.09,337.11,62.5,337.11,63z"/>
				<path class="st39" d="M317.09,99.73c0,0.67-0.64,1.21-1.43,1.21c-0.79,0-1.43-0.54-1.43-1.21c0-0.67,0.64-1.21,1.43-1.21
					C316.45,98.52,317.09,99.06,317.09,99.73z"/>
				<path class="st39" d="M270.97,139.19c0,0.84-0.8,1.52-1.79,1.52c-0.99,0-1.79-0.68-1.79-1.52c0-0.84,0.8-1.52,1.79-1.52
					C270.17,137.67,270.97,138.35,270.97,139.19z"/>
				<path class="st39" d="M497.28,120.98c0,0.5-0.48,0.91-1.07,0.91c-0.59,0-1.07-0.41-1.07-0.91c0-0.5,0.48-0.91,1.07-0.91
					C496.8,120.07,497.28,120.48,497.28,120.98z"/>
				<path class="st39" d="M496.21,222.97c0,0.67-0.64,1.21-1.43,1.21c-0.79,0-1.43-0.54-1.43-1.21c0-0.67,0.64-1.21,1.43-1.21
					C495.57,221.76,496.21,222.3,496.21,222.97z"/>
				<path class="st39" d="M259.17,240.88c0,0.5-0.48,0.91-1.07,0.91c-0.59,0-1.07-0.41-1.07-0.91s0.48-0.91,1.07-0.91
					C258.69,239.97,259.17,240.38,259.17,240.88z"/>
				<ellipse class="st39" cx="80.4" cy="238.75" rx="2.86" ry="2.43"/>
				<path class="st39" d="M232.71,173.19c0,0.5-0.48,0.91-1.07,0.91c-0.59,0-1.07-0.41-1.07-0.91c0-0.5,0.48-0.91,1.07-0.91
					C232.23,172.28,232.71,172.69,232.71,173.19z"/>
				<path class="st39" d="M203.04,62.09c0,0.67-0.64,1.21-1.43,1.21c-0.79,0-1.43-0.54-1.43-1.21c0-0.67,0.64-1.21,1.43-1.21
					C202.4,60.88,203.04,61.42,203.04,62.09z"/>
				<path class="st39" d="M94.35,63c0,1.68-1.6,3.04-3.58,3.04c-1.97,0-3.58-1.36-3.58-3.04c0-1.68,1.6-3.04,3.58-3.04
					C92.75,59.97,94.35,61.33,94.35,63z"/>
				<path class="st39" d="M343.19,5.03c0,0.5-0.48,0.91-1.07,0.91c-0.59,0-1.07-0.41-1.07-0.91c0-0.5,0.48-0.91,1.07-0.91
					C342.71,4.11,343.19,4.52,343.19,5.03z"/>
				<path class="st39" d="M303.5,48.43c0,0.5-0.48,0.91-1.07,0.91s-1.07-0.41-1.07-0.91s0.48-0.91,1.07-0.91
					S303.5,47.93,303.5,48.43z"/>
				<path class="st39" d="M490.49,44.49c0,0.84-0.8,1.52-1.79,1.52c-0.99,0-1.79-0.68-1.79-1.52c0-0.84,0.8-1.52,1.79-1.52
					C489.69,42.97,490.49,43.65,490.49,44.49z"/>
				<path class="st39" d="M425.78,9.58c0,0.5-0.48,0.91-1.07,0.91s-1.07-0.41-1.07-0.91c0-0.5,0.48-0.91,1.07-0.91
					S425.78,9.08,425.78,9.58z"/>
			</g>
		</g>
	</g>
</g>
<g id="DESIGNED_BY_FREEPIK" class="st0">
	<g class="st40">
		<g id="XMLID_29_">
			<g id="XMLID_48_">
				<path id="XMLID_56_" class="st41" d="M259.14,465.88c-0.39,0.4-0.73,0.84-1,1.32l-0.42-0.22c-0.06-0.27-0.32-0.45-0.6-0.42
					c-0.3,0.04-0.51,0.31-0.48,0.61c0.04,0.3,0.31,0.51,0.61,0.48c0.06-0.01,0.11-0.02,0.17-0.05l0.41,0.21
					c-0.23,0.5-0.39,1.03-0.49,1.58l0.68,0.12c0.21-1.18,0.77-2.27,1.62-3.14L259.14,465.88z"/>
				<path id="XMLID_55_" class="st41" d="M264.11,463.79c-0.15,0-0.31,0.01-0.46,0.02l-0.07-0.57c0.17-0.13,0.27-0.35,0.24-0.58
					c-0.04-0.36-0.36-0.61-0.72-0.57c-0.36,0.04-0.61,0.36-0.57,0.72c0.03,0.23,0.17,0.42,0.37,0.51l0.07,0.57
					c-0.65,0.11-1.27,0.3-1.86,0.58l0.3,0.62c0.85-0.4,1.76-0.61,2.71-0.61c0.45,0,0.9,0.05,1.33,0.14l0.15-0.67
					C265.11,463.85,264.61,463.79,264.11,463.79z"/>
				<path id="XMLID_54_" class="st41" d="M270.09,466.1c0.3-0.04,0.51-0.31,0.48-0.61c-0.04-0.3-0.31-0.51-0.61-0.48
					c-0.28,0.03-0.48,0.27-0.48,0.55l-0.38,0.33c-0.38-0.39-0.81-0.74-1.27-1.03l-0.37,0.58c1.03,0.65,1.83,1.56,2.32,2.65
					l0.62-0.28c-0.23-0.5-0.51-0.97-0.85-1.4l0.36-0.32C269.97,466.1,270.03,466.11,270.09,466.1z"/>
				<path id="XMLID_53_" class="st41" d="M263.62,473.03c-0.35,0.02-0.7,0.03-1.05,0.03c-0.8,0-1.57-0.05-2.24-0.16
					c-0.35-0.06-0.77-0.14-1.15-0.26c0.95,1.68,2.78,2.83,4.88,2.83c2.58,0,4.76-1.73,5.38-4.08c-0.62,0.41-1.36,0.75-2.23,1.02
					C266.14,472.74,264.9,472.95,263.62,473.03z"/>
				<path id="XMLID_49_" class="st41" d="M264.11,465.17c-3.03,0-5.5,2.41-5.5,5.38c0,0.39,0.04,0.77,0.12,1.14
					c0.61,0.44,2.45,0.81,4.84,0.66c2.61-0.16,4.79-0.87,6.04-1.95c-0.01-0.18-0.02-0.35-0.04-0.53
					C269.23,467.19,266.88,465.17,264.11,465.17z M262.16,471.06c-0.92,0-1.67-0.75-1.67-1.67c0-0.92,0.75-1.67,1.67-1.67
					c0.92,0,1.67,0.75,1.67,1.67C263.83,470.31,263.08,471.06,262.16,471.06z M266.44,470.24c-0.68,0-1.23-0.55-1.23-1.23
					c0-0.68,0.55-1.23,1.23-1.23c0.68,0,1.23,0.55,1.23,1.23C267.68,469.69,267.12,470.24,266.44,470.24z"/>
			</g>
			<path id="XMLID_46_" class="st41" d="M278.59,466.86c-0.27-0.1-0.73-0.28-1.25-0.21c-0.5,0.06-0.76,0.31-0.76,0.91v0.78h2.02
				v1.55h-2.02v4.94h-1.75v-4.94h-1.21v-1.55h1.21v-0.8c0-1.52,0.81-2.52,2.32-2.52c0.58,0,1.05,0.11,1.44,0.28L278.59,466.86z"/>
			<path id="XMLID_44_" class="st41" d="M282.85,469.87c-0.16-0.03-0.32-0.04-0.48-0.04c-0.81,0-1.37,0.5-1.37,1.46v3.54h-1.75
				v-6.49h1.69v0.71c0.41-0.61,1.03-0.88,1.83-0.88c0.38,0,0.77,0.12,0.99,0.3L282.85,469.87z"/>
			<path id="XMLID_41_" class="st41" d="M289.79,471.57c0,0.2-0.01,0.44-0.03,0.59h-4.6c0.19,0.94,0.84,1.35,1.67,1.35
				c0.56,0,1.17-0.23,1.64-0.62l1.02,1.13c-0.74,0.68-1.67,0.98-2.77,0.98c-1.99,0-3.37-1.35-3.37-3.4c0-2.04,1.34-3.44,3.28-3.44
				C288.5,468.16,289.78,469.55,289.79,471.57z M285.16,470.97h2.87c-0.16-0.83-0.66-1.3-1.41-1.3
				C285.8,469.67,285.32,470.16,285.16,470.97z"/>
			<path id="XMLID_38_" class="st41" d="M296.72,471.57c0,0.2-0.01,0.44-0.03,0.59h-4.6c0.19,0.94,0.84,1.35,1.67,1.35
				c0.56,0,1.17-0.23,1.64-0.62l1.02,1.13c-0.74,0.68-1.67,0.98-2.77,0.98c-1.99,0-3.37-1.35-3.37-3.4c0-2.04,1.34-3.44,3.28-3.44
				C295.43,468.16,296.71,469.55,296.72,471.57z M292.09,470.97h2.87c-0.16-0.83-0.66-1.3-1.41-1.3
				C292.72,469.67,292.24,470.16,292.09,470.97z"/>
			<path id="XMLID_35_" class="st41" d="M304.27,471.58c0,1.95-1.35,3.42-3.14,3.42c-0.87,0-1.49-0.34-1.91-0.84v3.36h-1.74v-9.17
				h1.71v0.72c0.42-0.53,1.04-0.89,1.94-0.89C302.92,468.16,304.27,469.63,304.27,471.58z M299.13,471.58
				c0,1.02,0.68,1.79,1.67,1.79c1.03,0,1.67-0.8,1.67-1.79c0-0.99-0.64-1.79-1.67-1.79C299.81,469.79,299.13,470.55,299.13,471.58z"
				/>
			<path id="XMLID_32_" class="st41" d="M307.08,466.21c0,0.63-0.49,1.11-1.12,1.11c-0.63,0-1.11-0.48-1.11-1.11
				c0-0.63,0.48-1.13,1.11-1.13C306.59,465.09,307.08,465.58,307.08,466.21z M306.84,474.83h-1.75v-6.49h1.75V474.83z"/>
			<path id="XMLID_30_" class="st41" d="M309.76,470.65l2.44-2.31h2.14l-3.15,3.05l3.17,3.44h-2.15l-2.46-2.63v2.63h-1.75v-9.65
				h1.75V470.65z"/>
		</g>
		<g>
			<path class="st41" d="M190.64,474.77v-0.95c-0.48,0.65-1.26,1.11-2.16,1.11c-1.67,0-2.85-1.27-2.85-3.35
				c0-2.04,1.17-3.37,2.85-3.37c0.86,0,1.64,0.42,2.16,1.13v-3.41h0.99v8.84H190.64z M190.64,473.03v-2.9
				c-0.36-0.56-1.13-1.03-1.92-1.03c-1.29,0-2.05,1.06-2.05,2.48c0,1.42,0.77,2.47,2.05,2.47
				C189.51,474.04,190.28,473.59,190.64,473.03z"/>
			<path class="st41" d="M192.92,471.56c0-1.86,1.33-3.35,3.15-3.35c1.94,0,3.08,1.51,3.08,3.43v0.25h-5.18
				c0.08,1.21,0.93,2.21,2.31,2.21c0.73,0,1.47-0.29,1.98-0.81l0.48,0.65c-0.64,0.64-1.5,0.98-2.55,0.98
				C194.29,474.93,192.92,473.56,192.92,471.56z M196.06,469.03c-1.37,0-2.04,1.15-2.09,2.13h4.2
				C198.16,470.21,197.52,469.03,196.06,469.03z"/>
			<path class="st41" d="M199.87,473.92l0.52-0.72c0.42,0.49,1.23,0.91,2.11,0.91c0.98,0,1.51-0.46,1.51-1.1
				c0-1.55-3.96-0.6-3.96-2.97c0-0.99,0.86-1.84,2.39-1.84c1.09,0,1.86,0.41,2.37,0.93l-0.46,0.69c-0.38-0.46-1.09-0.81-1.91-0.81
				c-0.87,0-1.42,0.44-1.42,1.01c0,1.41,3.96,0.48,3.96,2.97c0,1.07-0.86,1.94-2.52,1.94C201.41,474.93,200.52,474.61,199.87,473.92
				z"/>
			<path class="st41" d="M206.09,466.79c0-0.37,0.3-0.68,0.66-0.68c0.37,0,0.68,0.3,0.68,0.68c0,0.37-0.3,0.66-0.68,0.66
				C206.39,467.45,206.09,467.16,206.09,466.79z M206.26,474.77v-6.4h0.99v6.4H206.26z"/>
			<path class="st41" d="M208.9,476.41l0.5-0.74c0.53,0.64,1.17,0.88,2.08,0.88c1.06,0,2.05-0.52,2.05-1.92v-0.91
				c-0.46,0.65-1.25,1.14-2.15,1.14c-1.67,0-2.85-1.25-2.85-3.31c0-2.05,1.17-3.33,2.85-3.33c0.86,0,1.63,0.42,2.15,1.13v-0.97h0.99
				v6.22c0,2.12-1.48,2.78-3.05,2.78C210.39,477.37,209.65,477.15,208.9,476.41z M213.54,472.92v-2.8
				c-0.34-0.56-1.11-1.03-1.91-1.03c-1.29,0-2.05,1.02-2.05,2.44c0,1.41,0.77,2.44,2.05,2.44
				C212.42,473.97,213.19,473.48,213.54,472.92z"/>
			<path class="st41" d="M220.51,474.77v-4.19c0-1.13-0.57-1.48-1.43-1.48c-0.78,0-1.52,0.48-1.9,0.99v4.68h-0.99v-6.4h0.99v0.93
				c0.45-0.53,1.33-1.09,2.28-1.09c1.34,0,2.04,0.68,2.04,2.07v4.49H220.51z"/>
			<path class="st41" d="M222.79,471.56c0-1.86,1.33-3.35,3.16-3.35c1.94,0,3.08,1.51,3.08,3.43v0.25h-5.18
				c0.08,1.21,0.93,2.21,2.31,2.21c0.73,0,1.47-0.29,1.98-0.81l0.48,0.65c-0.64,0.64-1.5,0.98-2.55,0.98
				C224.15,474.93,222.79,473.56,222.79,471.56z M225.93,469.03c-1.37,0-2.04,1.15-2.09,2.13h4.2
				C228.02,470.21,227.39,469.03,225.93,469.03z"/>
			<path class="st41" d="M234.93,474.77v-0.95c-0.48,0.65-1.26,1.11-2.16,1.11c-1.67,0-2.85-1.27-2.85-3.35
				c0-2.04,1.17-3.37,2.85-3.37c0.86,0,1.64,0.42,2.16,1.13v-3.41h0.99v8.84H234.93z M234.93,473.03v-2.9
				c-0.36-0.56-1.13-1.03-1.92-1.03c-1.29,0-2.05,1.06-2.05,2.48c0,1.42,0.77,2.47,2.05,2.47
				C233.8,474.04,234.57,473.59,234.93,473.03z"/>
			<path class="st41" d="M240.67,474.77v-8.84h0.99v3.41c0.52-0.7,1.29-1.13,2.16-1.13c1.67,0,2.85,1.33,2.85,3.37
				c0,2.08-1.18,3.35-2.85,3.35c-0.9,0-1.68-0.46-2.16-1.11v0.95H240.67z M243.57,474.04c1.3,0,2.07-1.05,2.07-2.47
				c0-1.42-0.77-2.48-2.07-2.48c-0.78,0-1.56,0.48-1.91,1.03v2.9C242.01,473.59,242.79,474.04,243.57,474.04z"/>
			<path class="st41" d="M247.76,476.37c0.15,0.07,0.38,0.11,0.54,0.11c0.44,0,0.73-0.15,0.95-0.68l0.42-0.97l-2.68-6.47h1.07
				l2.13,5.25l2.12-5.25h1.09l-3.21,7.7c-0.38,0.93-1.03,1.29-1.88,1.3c-0.21,0-0.54-0.04-0.73-0.09L247.76,476.37z"/>
		</g>
	</g>
</g>
</svg>
