<?xml version="1.0" encoding="utf-8"?>
<!-- Generator: Adobe Illustrator 23.0.5, SVG Export Plug-In . SVG Version: 6.00 Build 0)  -->
<svg version="1.1" id="Capa_1" xmlns="http://www.w3.org/2000/svg" xmlns:xlink="http://www.w3.org/1999/xlink" x="0px" y="0px"
	 viewBox="0 0 1109 939" style="enable-background:new 0 0 1109 939;" xml:space="preserve">
<style type="text/css">
	.st0{fill:none;stroke:#FFFFFF;stroke-width:12;stroke-linecap:round;stroke-linejoin:round;stroke-miterlimit:10;}
	.st1{fill:#D37568;}
	.st2{fill:#D0574D;}
	.st3{fill:#3D1863;}
</style>
<g>
	<g>
		<path class="st0" d="M668,624.1c-4.8,1.2-4.4,6.1-1.6,20.1c2.9,14.1-7.9,21.5-7.9,21.5c14.9-24.8-6.3-44.4-11.2-40.8
			c-4.3,3.1-2.4,7.9,4.5,19.9c6.9,12-1.8,20.3-1.8,20.3c1.6-10.5-0.2-21.6-9.4-24.5c-6.5-2-8.6,2.5-8.7,5.8
			c-2.5-9.6-30.1-13.9-23,13.2c3.8,14.5,10.8,21.4,17,24.7c-0.7,5.4-2.7,16.9-8.2,28.7c-9.5,20.3-24.9,31.8-45.7,34.3
			c-40.4,4.8-64.1-23.5-72.5-36.2l11.4-6.6c1.5-0.8,2.5-2.3,2.7-4c0.2-1.7-0.3-3.4-1.5-4.6l-8.5-8.7c5.7-0.1,11.9-0.8,18.6-2.1
			c16.8-3.4,38.8-12.3,48.7-35.1c4.1-9.5,4.7-18.3,4.6-23c17.2-8.3,26.5-22.8,26.9-42.4c0.2-11.5-2.7-21.5-4.2-25.9
			c1.8-3.1,3.2-6.9,4-11.6c4.2-25.4-8.9-41.9-9.5-42.6c-0.2-0.3-0.5-0.5-0.7-0.7c0.2-1,0.4-2,0.6-3c3.3-20.4-3.2-48.8-32.1-63.2
			c-3.2-19.1-17-32.7-39.9-39.5c-14.1-4.2-27.6-4.5-32.6-4.5c-1-1-2.1-2.1-3.2-3.2c-4.9-5-10.5-10.6-18.2-15
			c-7.7-4.4-17.5-7.5-30.9-7.5c-9.9,0-18.8,6.5-25.2,18.2c-1.2,2.3-2.4,4.8-3.4,7.5c-1-2.7-2.1-5.2-3.4-7.5
			c-6.3-11.7-15.3-18.2-25.2-18.2c-13.4,0-23.2,3.1-30.9,7.5c-7.7,4.4-13.3,10-18.2,15c-1.1,1.1-2.1,2.2-3.2,3.2
			c-5,0-18.5,0.3-32.6,4.5c-23,6.8-36.7,20.4-39.9,39.5c-29,14.3-35.5,42.8-32.1,63.2c0.2,1,0.4,2,0.6,3c-0.2,0.2-0.5,0.4-0.7,0.7
			c-0.5,0.7-13.7,17.1-9.5,42.6c0.8,4.7,2.2,8.5,4,11.6c-1.5,4.4-4.5,14.4-4.2,25.9c0.4,19.5,9.6,34.1,26.9,42.4
			c-0.1,4.6,0.5,13.4,4.6,23c9.9,22.8,31.9,31.7,48.7,35.1c6.7,1.4,12.9,2,18.6,2.1l-8.5,8.7c-1.2,1.2-1.7,2.9-1.5,4.6
			c0.2,1.7,1.2,3.2,2.7,4l11.5,6.6c-8.5,12.7-32.2,41-72.6,36.2c-20.8-2.5-36.1-14-45.7-34.3c-5.5-11.7-7.5-23.3-8.2-28.7
			c6.2-3.3,13.2-10.2,17-24.7c7.1-27-20.5-22.7-23-13.2c-0.2-3.2-2.2-7.8-8.7-5.8c-9.2,2.8-11.1,14-9.5,24.5c0,0-8.6-8.3-1.8-20.3
			c6.9-12,8.8-16.7,4.5-19.9c-4.9-3.6-26.1,16-11.2,40.8c0,0-10.7-7.4-7.9-21.5c2.9-14.1,3.2-18.9-1.6-20.1
			c-7.4-1.9-28.4,53.9,24.7,62.3c0.8,6.6,3.2,19.7,9.5,33.4c12.1,26.1,32.8,41.6,59.8,44.9c3.8,0.5,7.5,0.7,11.2,0.7
			c22.2,0,42.8-8.1,60.1-23.7c8.8-7.9,14.9-16.2,18.6-21.8l10.6,6.1l-9.2,57c-20.1,0.2-42.6,1.8-47.5,8c-9.2,11.7,107,20.9,107,20.9
			s5.1,23.4,10.7,23.4c5.6,0,0-33.6,0-33.6l-34.4-4.2H447l-34.4,4.2c0,0-5.6,33.6,0,33.6c5.6,0,10.7-23.4,10.7-23.4
			s116.2-9.2,107-20.9c-4.8-6.2-27.3-7.8-47.5-8l-9.2-57l10.6-6.1c3.7,5.6,9.8,13.9,18.6,21.8c17.3,15.6,37.9,23.7,60.1,23.7
			c3.7,0,7.4-0.2,11.2-0.7c27-3.2,47.7-18.7,59.8-44.9c6.3-13.6,8.6-26.7,9.5-33.4C696.4,677.9,675.4,622.1,668,624.1z M173.5,658
			c3-7.7,6.8-3.4,8.4-9.7c0.1,0.5,0.2,1,0.4,1.6c0,0,0.8,3.3,7.8,2.5c7-0.8,2.1,17.8-2.9,18.9C182.4,672.4,168.6,670.6,173.5,658z
			 M626.7,671.3c-5-1.1-9.9-19.7-2.9-18.9s7.8-2.5,7.8-2.5c0.2-0.5,0.3-1,0.4-1.6c1.6,6.3,5.4,2,8.4,9.7
			C645.5,670.6,631.7,672.4,626.7,671.3z"/>
	</g>
	<g>
		<g>
			<g>
				<path class="st1" d="M609.6,770.1c-20.2,19.5-49.7,31.8-82.7,31.8c-32.9,0-62.5-12.3-82.7-31.8c0.2-0.4,0.4-0.9,0.6-1.3
					c0.4-0.8,0.8-1.6,1.1-2.4c0.7-1.6,1.4-3.2,2-4.8c0.3-0.9,0.6-1.7,1-2.6c0.3-0.8,0.6-1.6,0.8-2.5c0.3-0.8,0.5-1.6,0.7-2.5
					c0.3-0.8,0.5-1.7,0.7-2.5c0.4-1.7,0.8-3.3,1.1-5c0.1-0.7,0.3-1.5,0.4-2.2c0.4-2.6,0.7-5.2,0.9-7.8c0.1-1.7,0.2-3.3,0.2-5
					c5.8,2.4,12.5,4,20,4c10.2,0,21.8-3,34.6-11.1c8.6-5.4,14.8-12.6,18.5-21.4c3.7,8.8,9.9,16,18.5,21.4
					c12.8,8.1,24.4,11.1,34.6,11.1c7.4,0,14.1-1.6,20-4c0,1.7,0.1,3.3,0.2,5c0.2,2.6,0.5,5.2,0.9,7.8c0.1,0.7,0.2,1.4,0.4,2.2
					c0.3,1.7,0.7,3.3,1.1,5c0.2,0.8,0.4,1.7,0.7,2.5c1.2,4.2,2.7,8.3,4.5,12.4C608.4,767.6,609,768.9,609.6,770.1z"/>
				<g>
					<g>
						<g id="XMLID_1_">
							<path class="st1" d="M417.5,776.8c-12.3,14.8-49.1,47.4-123.6,31.5c-103.2-22-94.9-107.2-94.5-110.8
								c0.5-4.3-1.8-8.5-5.6-10.1c-60-26.2-52.5-87.1-45.3-115c11.5,8.8,24.7,11.5,33.3,12.2c2.5,19.8,12.7,66.8,53.8,100.9
								c44.3,36.8,109.9,46.7,195.1,29.4c0.9,1,1.9,2.1,3.1,3.2C438.6,736.1,432.4,758.9,417.5,776.8z"/>
							<path class="st1" d="M489.8,617.5c0.4-2.6,1.8-4.8,3.8-6.3c1.1-0.8,24.3-19.2,14.8-62.1c-19.5,28.6-45.3,34.1-46.5,34.4
								c-0.6,0.1-6,1.1-14,1.1c-14.1,0-36.3-3.2-54.4-20.4c-19.9-18.9-29.1-49.3-27.5-90.4c-37,6.2-94.6,1.9-109.2-50.7
								c-1.4-5.1,1.4-10.5,6.3-12c4.9-1.5,10.1,1.5,11.5,6.6c15.4,55.7,98.3,34.9,99.2,34.7c2.9-0.8,6,0,8.3,2.1
								c2.3,2.1,3.5,5.1,3.2,8.3c-3.6,41.3,3.3,70.6,20.7,87.1c21.4,20.4,52,14.6,52.3,14.5c0.9-0.2,24.7-5.7,40.1-35.3
								c26.6-51.2,7.2-132.5-14.7-193.4c-22.6-1.5-43.5-22.9-54-35.7c-10.1,13.3-25.9,25.8-50.6,32.9c-0.8,0.2-1.7,0.4-2.5,0.4
								c-4.1,0-7.8-2.8-8.9-7.2c-1.4-5.2,1.6-10.5,6.5-11.9c64-18.4,54.9-77.6,54.5-80.2c-0.9-5.3,2.5-10.3,7.6-11.2
								c5.1-0.9,9.9,2.6,10.7,7.9c0.1,0.8,3.2,20.2-3.6,42.4c-0.9,3-2.1,6.2-3.5,9.4c8.8,11.6,29.1,33.9,46.2,33.9h0.5
								c7.1-0.2,13.3-4.6,18.9-13.5c14.7-23.5,18-70.8-1.9-109.4c-2.8-5.4-7.2-12.7-13.2-18.6c-5.9-5.9-13.4-10.5-22.3-10.5
								c-47.5,0-68.9,22.6-87.8,42.6c-3.3,3.5-6.5,6.9-9.7,10c-1.8,1.8-4.2,2.7-6.7,2.6c-0.3,0-32.6-1.2-65.5,9
								c-41.7,13-65,37.7-69.2,73.4c0.1,5.9,2.4,50.7,38.7,50.7h0.2c5.1,0,9.3,4.3,9.3,9.7c0,5.4-4.1,9.7-9.2,9.8H268
								c-15.1,0-27.7-5.1-37.4-15.3c-11.4-11.9-16.3-28.3-18.3-40.2c-44,27.1-54.3,74.2-48.5,111.2c4.7,30.1,20.1,53.1,36.6,54.8
								c5.1,0.5,8.8,5.3,8.3,10.6c-0.5,5-4.5,8.7-9.2,8.7c-0.3,0-0.6,0-0.9,0c-18.5-1.9-34.8-17.5-44.8-41.1
								c-6.3,12.3-14.7,35.6-9.8,66.5c6.4,40.5,41.3,38.3,45.2,37.9c0.2,0,0.4,0,0.5,0c0.3,0,0.6-0.1,0.9,0
								c37.6,2,51.8-13.9,52.4-14.6c3.3-4.1,9.1-4.5,13-1c3.9,3.5,4.3,9.7,1,13.8c-0.7,0.9-17,20.3-56.5,21.4
								c2.8,18.3,12.7,57.5,46.6,85.6c40.7,33.7,102.9,41.9,184.9,24.4c3.6-0.8,7.3,0.8,9.4,3.9c0.6,0.8,2.4,3.3,5.3,6.1
								c0.7,0.5,1.4,1.1,2,1.8c9.1,7.8,26.4,16.3,50.1,1.3c7.1-4.4,11.3-10.5,12.8-18.4c4.4-22.2-13.2-54.2-20.4-64.7
								C490,622.7,489.4,620.1,489.8,617.5z M374.2,671.4H374c-10.4-0.2-19.6-4.3-27.2-11.9c-5.8,1-11.2,1.5-16.4,1.5
								c-15.4,0-27.8-4.6-36.9-13.8c-20.7-20.9-15.2-57-14.9-58.5c0.9-5.3,5.6-8.8,10.7-7.9c5,0.9,8.4,5.9,7.6,11.2
								c-0.1,0.4-4.1,27.6,9.5,41.3c6.2,6.3,15.7,9,28.1,8.2c-5.7-12.1-7.6-23.6-7.6-24.1c-0.8-5.3,2.6-10.3,7.6-11.2
								c5.1-0.9,9.8,2.7,10.7,8c0.1,0.5,6.3,37.3,29.2,37.8c5.1,0.1,9.2,4.6,9.1,9.9C383.4,667.2,379.3,671.4,374.2,671.4z"/>
						</g>
					</g>
					<g>
						<g id="XMLID_2_">
							<path class="st1" d="M860.3,687.3c-3.8,1.7-6.2,5.8-5.6,10.1c0.4,3.6,8.6,88.8-94.5,110.8c-74.6,15.9-111.3-16.7-123.6-31.5
								c-15-17.9-21.1-40.7-16.1-58.8c1.2-1.1,2.2-2.2,3.1-3.2c85.1,17.3,150.8,7.4,195.1-29.4c41.1-34.1,51.2-81.1,53.8-100.9
								c8.6-0.7,21.8-3.4,33.3-12.2C912.8,600.2,920.3,661.1,860.3,687.3z"/>
							<path class="st1" d="M900.2,460.8c-9.9,23.6-26.3,39.2-44.8,41.1c-0.3,0-0.6,0-0.9,0c-4.7,0-8.8-3.7-9.2-8.7
								c-0.5-5.3,3.2-10.1,8.3-10.6c16.5-1.7,31.9-24.8,36.6-54.8c5.8-37-4.5-84.1-48.5-111.2c-2.1,11.9-6.9,28.2-18.3,40.2
								c-9.7,10.2-22.3,15.3-37.4,15.3h-0.2c-5.1,0-9.3-4.4-9.2-9.8c0-5.3,4.2-9.7,9.3-9.7h0.2c36.3,0,38.5-44.8,38.7-50.7
								c-4.2-35.7-27.5-60.4-69.2-73.4c-32.9-10.2-65.2-9-65.5-9c-2.5,0.1-4.9-0.8-6.7-2.6c-3.2-3.2-6.4-6.5-9.7-10
								c-18.9-20-40.3-42.6-87.8-42.6c-8.9,0-16.3,4.5-22.3,10.5c-5.9,5.9-10.4,13.2-13.2,18.6c-19.9,38.6-16.6,85.9-1.9,109.4
								c5.6,8.9,11.7,13.3,18.9,13.5h0.5c17.1,0,37.5-22.3,46.2-33.9c-1.4-3.2-2.5-6.4-3.5-9.4c-6.8-22.2-3.7-41.6-3.6-42.4
								c0.9-5.3,5.7-8.8,10.7-7.9c5,0.9,8.4,5.9,7.6,11.2c-0.4,2.5-9.5,61.8,54.5,80.2c4.9,1.4,7.8,6.8,6.5,11.9
								c-1.1,4.3-4.9,7.2-8.9,7.2c-0.8,0-1.6-0.1-2.5-0.4c-24.7-7.1-40.5-19.6-50.6-32.9c-10.5,12.8-31.4,34.2-54,35.7
								c-21.9,61-41.3,142.3-14.7,193.4c15.4,29.6,39.2,35.1,40.1,35.3c0.3,0.1,30.9,5.8,52.3-14.5c17.3-16.5,24.3-45.8,20.7-87.1
								c-0.3-3.1,0.9-6.2,3.2-8.3c2.3-2,5.4-2.8,8.3-2.1c0.8,0.2,83.8,21.1,99.2-34.7c1.4-5.2,6.6-8.1,11.5-6.6
								c4.9,1.5,7.8,6.9,6.3,12c-14.5,52.6-72.2,56.9-109.2,50.7c1.6,41.1-7.6,71.5-27.5,90.4c-18,17.2-40.3,20.4-54.4,20.4
								c-8,0-13.3-1-14-1.1c-1.2-0.3-26.9-5.8-46.5-34.4c-9.4,42.9,13.8,61.2,14.8,62.1c2,1.5,3.4,3.8,3.8,6.3
								c0.4,2.6-0.2,5.2-1.6,7.3c-7.1,10.5-24.7,42.4-20.4,64.7c1.6,7.9,5.8,13.9,12.8,18.4c23.7,15,40.9,6.5,50.1-1.3
								c0.6-0.7,1.3-1.3,2-1.8c2.9-2.8,4.7-5.2,5.3-6.1c2.1-3.1,5.8-4.6,9.4-3.9c82,17.5,144.2,9.3,184.9-24.4
								c34-28.1,43.8-67.3,46.6-85.6c-39.6-1.1-55.8-20.5-56.5-21.4c-3.3-4.1-2.9-10.3,1-13.8c3.9-3.5,9.7-3,13,1
								c0.6,0.7,14.8,16.6,52.4,14.6c0.3,0,0.6,0,0.9,0c0.2,0,0.4,0,0.5,0c3.9,0.4,38.8,2.6,45.2-37.9
								C914.9,496.4,906.5,473.1,900.2,460.8z M760.4,647.2c-9.1,9.2-21.5,13.8-36.9,13.8c-5.1,0-10.6-0.5-16.4-1.5
								c-7.7,7.6-16.8,11.7-27.2,11.9h-0.2c-5,0-9.2-4.2-9.3-9.5c-0.1-5.4,3.9-9.8,9.1-9.9c22.9-0.5,29.1-37.3,29.2-37.8
								c0.8-5.3,5.6-8.9,10.6-8c5.1,0.9,8.5,5.9,7.6,11.2c-0.1,0.5-1.9,12-7.6,24.1c12.4,0.8,21.8-1.9,28.1-8.2
								c13.7-13.7,9.6-41,9.5-41.3c-0.8-5.3,2.6-10.3,7.6-11.2c5-0.9,9.8,2.7,10.7,7.9C775.6,590.2,781.1,626.3,760.4,647.2z"/>
						</g>
					</g>
					<g>
						<path class="st2" d="M374.4,652c5.1,0.1,9.2,4.6,9.1,9.9c-0.1,5.3-4.2,9.5-9.3,9.5c-0.1,0-0.1,0-0.2,0
							c-10.4-0.2-19.6-4.3-27.2-11.9c-5.8,1-11.2,1.5-16.4,1.5c-15.4,0-27.8-4.6-36.9-13.8c-20.7-20.9-15.2-57-14.9-58.5
							c0.9-5.3,5.6-8.8,10.7-7.9c5,0.9,8.4,5.9,7.6,11.2c-0.1,0.4-4.1,27.6,9.5,41.3c6.2,6.3,15.7,9,28.1,8.2
							c-5.7-12.1-7.6-23.6-7.6-24.1c-0.8-5.3,2.6-10.3,7.6-11.2c5.1-0.9,9.8,2.7,10.7,8C345.3,614.6,351.5,651.5,374.4,652z"/>
						<path class="st2" d="M679.6,652c-5.1,0.1-9.2,4.6-9.1,9.9c0.1,5.3,4.2,9.5,9.3,9.5c0.1,0,0.2,0,0.2,0
							c10.4-0.2,19.6-4.3,27.2-11.9c5.8,1,11.2,1.5,16.4,1.5c15.4,0,27.8-4.6,36.9-13.8c20.7-20.9,15.2-57,14.9-58.5
							c-0.9-5.3-5.6-8.8-10.7-7.9c-5,0.9-8.4,5.9-7.6,11.2c0.1,0.4,4.1,27.6-9.5,41.3c-6.2,6.3-15.7,9-28.1,8.2
							c5.7-12.1,7.6-23.6,7.6-24.1c0.8-5.3-2.6-10.3-7.6-11.2c-5.1-0.9-9.8,2.7-10.7,8C708.7,614.6,702.4,651.5,679.6,652z"/>
						<path class="st2" d="M928.2,530.5c8.7-54.8-18.4-90.2-19.5-91.6c-0.4-0.5-0.9-1-1.4-1.4c0.4-2.2,0.8-4.3,1.2-6.5
							c6.9-43.9-6.6-105.1-66.1-136c-6.6-41.2-34.9-70.5-82.1-85c-29.1-9-56.9-9.7-67.1-9.7c-2.1-2.2-4.3-4.4-6.5-6.8
							c-10.2-10.8-21.6-22.9-37.4-32.3c-15.8-9.4-35.9-16.1-63.6-16.1c-20.3,0-38.7,13.9-51.7,39.2c-2.6,5-4.9,10.4-6.9,16.1
							c-2-5.8-4.4-11.2-6.9-16.1C507,159,488.6,145,468.3,145c-27.6,0-47.8,6.7-63.6,16.1c-15.8,9.4-27.2,21.5-37.4,32.3
							c-2.2,2.4-4.4,4.6-6.5,6.8c-10.2,0-38,0.7-67.1,9.7c-47.3,14.6-75.6,43.9-82.1,85c-59.6,30.9-73,92.1-66.1,136
							c0.4,2.2,0.7,4.4,1.2,6.5c-0.5,0.4-1,0.9-1.4,1.4c-1.1,1.5-28.2,36.9-19.5,91.6c1.6,10,4.5,18.2,8.2,24.9
							c-3.1,9.4-9.2,31-8.7,55.7c0.8,42.1,19.8,73.5,55.3,91.3c-0.1,10,1.1,28.9,9.5,49.4c20.3,49.1,65.6,68.2,100.1,75.5
							c15.3,3.3,29.3,4.7,41.9,4.7c56.8,0,87.6-28.2,99.4-42.4c0.5-0.6,0.9-1.1,1.4-1.7c23.7,21.8,57.2,35.4,94.1,35.4
							c37,0,70.4-13.6,94.1-35.4c-0.1-0.2-0.3-0.4-0.4-0.5c0.6,0.8,1.2,1.5,1.8,2.3c11.8,14.2,42.6,42.4,99.4,42.4
							c12.7,0,26.6-1.4,41.9-4.7c34.5-7.3,79.8-26.4,100.1-75.5c8.5-20.5,9.6-39.4,9.5-49.4c35.5-17.8,54.5-49.2,55.3-91.3
							c0.4-24.7-5.6-46.3-8.7-55.7C923.7,548.8,926.6,540.6,928.2,530.5z M527,703.1c3.7,8.8,9.9,16,18.5,21.4
							c12.8,8.1,24.4,11.1,34.6,11.1c7.4,0,14.1-1.6,20-4c0,1.7,0.1,3.3,0.2,5c0.2,2.6,0.5,5.2,0.9,7.8c0.1,0.7,0.3,1.5,0.4,2.2
							c0.3,1.7,0.7,3.3,1.1,5c0.2,0.8,0.4,1.7,0.7,2.5c1.2,4.1,2.7,8.3,4.5,12.4c0.7,1.6,1.5,3.2,2.4,4.8c-0.1-0.2-0.2-0.4-0.3-0.6
							c-0.1-0.2-0.2-0.4-0.3-0.6c-20.2,19.5-49.7,31.8-82.7,31.8c-32.9,0-62.5-12.3-82.7-31.8c-0.2,0.4-0.4,0.7-0.6,1.1
							c0.4-0.8,0.8-1.6,1.2-2.4c0.4-0.8,0.8-1.6,1.1-2.4c0.7-1.6,1.4-3.2,2-4.8c0.3-0.9,0.6-1.7,1-2.6c0.3-0.8,0.6-1.7,0.8-2.5
							c0.3-0.8,0.5-1.7,0.7-2.5c0.2-0.8,0.5-1.7,0.7-2.5c0.4-1.7,0.8-3.3,1.1-5c0.1-0.7,0.3-1.4,0.4-2.2c0.4-2.6,0.7-5.2,0.9-7.8
							c0.1-1.7,0.2-3.3,0.2-5c5.8,2.4,12.5,4,20,4c10.2,0,21.8-3,34.6-11.1C517.1,719,523.3,711.9,527,703.1z M153.8,460.8
							c9.9,23.6,26.3,39.2,44.8,41.1c0.3,0,0.6,0,0.9,0c4.7,0,8.8-3.7,9.2-8.7c0.5-5.3-3.2-10.1-8.3-10.6
							c-16.5-1.7-32-24.8-36.6-54.8c-5.8-37,4.5-84.1,48.5-111.2c2.1,11.9,6.9,28.2,18.3,40.2c9.7,10.2,22.3,15.3,37.4,15.3h0.2
							c5.1,0,9.3-4.4,9.2-9.8c0-5.3-4.2-9.7-9.3-9.7H268c-36.3,0-38.5-44.8-38.7-50.7c4.2-35.7,27.5-60.4,69.2-73.4
							c32.9-10.2,65.2-9,65.5-9c2.5,0.1,4.9-0.8,6.7-2.6c3.2-3.2,6.4-6.5,9.7-10c18.9-20,40.3-42.6,87.8-42.6
							c8.9,0,16.3,4.5,22.3,10.5c5.9,5.9,10.4,13.2,13.2,18.6c19.9,38.6,16.6,85.9,1.9,109.4c-5.6,8.9-11.7,13.3-18.9,13.5h-0.5
							c-17.1,0-37.5-22.3-46.2-33.9c1.4-3.2,2.5-6.4,3.5-9.4c6.8-22.2,3.7-41.6,3.6-42.4c-0.9-5.3-5.7-8.8-10.7-7.9
							c-5,0.9-8.4,5.9-7.6,11.2c0.4,2.5,9.5,61.8-54.5,80.2c-4.9,1.4-7.8,6.8-6.5,11.9c1.1,4.3,4.9,7.2,8.9,7.2
							c0.8,0,1.6-0.1,2.5-0.4c24.7-7.1,40.5-19.6,50.6-32.9c10.5,12.8,31.4,34.2,54,35.7c21.9,61,41.3,142.3,14.7,193.4
							c-15.4,29.6-39.2,35.1-40.1,35.3c-0.3,0.1-30.9,5.8-52.3-14.5c-17.3-16.5-24.3-45.8-20.7-87.1c0.3-3.1-0.9-6.2-3.2-8.3
							c-2.3-2-5.4-2.8-8.3-2.1c-0.8,0.2-83.8,21.1-99.2-34.7c-1.4-5.2-6.6-8.1-11.5-6.6c-4.9,1.5-7.8,6.9-6.3,12
							c14.5,52.6,72.2,56.9,109.2,50.7c-1.6,41.1,7.6,71.5,27.5,90.4c18,17.2,40.3,20.4,54.4,20.4c8,0,13.3-1,14-1.1
							c1.2-0.3,26.9-5.8,46.5-34.4c9.4,42.9-13.8,61.2-14.8,62.1c-2,1.5-3.4,3.8-3.8,6.3c-0.4,2.6,0.2,5.2,1.6,7.3
							c7.1,10.5,24.7,42.4,20.4,64.7c-1.6,7.9-5.8,13.9-12.8,18.4c-23.7,15-40.9,6.5-50.1-1.3c-0.6-0.7-1.3-1.3-2-1.8
							c-2.9-2.8-4.7-5.2-5.3-6.1c-2.1-3.1-5.8-4.6-9.4-3.9c-82,17.5-144.2,9.3-184.9-24.4c-34-28.1-43.8-67.3-46.6-85.6
							c39.6-1.1,55.8-20.5,56.5-21.4c3.3-4.1,2.9-10.3-1-13.8c-3.9-3.5-9.7-3-13,1c-0.6,0.7-14.8,16.6-52.4,14.6c-0.3,0-0.6,0-0.9,0
							c-0.2,0-0.4,0-0.5,0c-3.9,0.4-38.8,2.6-45.2-37.9C139.1,496.4,147.5,473.1,153.8,460.8z M417.5,776.8
							c-12.3,14.8-49.1,47.4-123.6,31.5c-103.2-22-94.9-107.2-94.5-110.8c0.5-4.3-1.8-8.5-5.6-10.1c-60-26.2-52.5-87.1-45.3-115
							c11.5,8.8,24.7,11.5,33.3,12.2c2.5,19.8,12.7,66.8,53.8,100.9c44.3,36.8,109.9,46.7,195.1,29.4c0.9,1,1.9,2.1,3.1,3.2
							C438.6,736.1,432.4,758.9,417.5,776.8z M860.3,687.3c-3.8,1.7-6.2,5.8-5.6,10.1c0.4,3.6,8.6,88.8-94.5,110.8
							c-74.6,15.9-111.3-16.7-123.6-31.5c-15-17.9-21.1-40.7-16.1-58.8c1.2-1.1,2.2-2.2,3.1-3.2c85.1,17.3,150.8,7.4,195.1-29.4
							c41.1-34.1,51.2-81.1,53.8-100.9c8.6-0.7,21.8-3.4,33.3-12.2C912.8,600.2,920.3,661.1,860.3,687.3z M910,527.4
							c-6.4,40.5-41.3,38.3-45.2,37.9c-0.2,0-0.4,0-0.5,0c-0.3,0-0.6-0.1-0.9,0c-37.6,2-51.8-13.9-52.4-14.6c-3.3-4.1-9.1-4.5-13-1
							c-3.9,3.5-4.3,9.7-1,13.8c0.7,0.9,17,20.3,56.5,21.4c-2.8,18.3-12.7,57.5-46.6,85.6c-40.7,33.7-102.9,41.9-184.9,24.4
							c-3.6-0.8-7.3,0.8-9.4,3.9c-0.6,0.8-2.4,3.3-5.3,6.1c-0.7,0.5-1.4,1.1-2,1.8c-9.1,7.8-26.4,16.3-50.1,1.3
							c-7.1-4.4-11.3-10.5-12.8-18.4c-4.4-22.2,13.2-54.2,20.4-64.7c1.4-2.1,2-4.7,1.6-7.3c-0.4-2.6-1.8-4.8-3.8-6.3
							c-1.1-0.8-24.3-19.2-14.8-62.1c19.5,28.6,45.3,34.1,46.5,34.4c0.6,0.1,6,1.1,14,1.1c14.1,0,36.3-3.2,54.4-20.4
							c19.9-18.9,29.1-49.3,27.5-90.4c37,6.2,94.6,1.9,109.2-50.7c1.4-5.1-1.4-10.5-6.3-12c-4.9-1.5-10.1,1.5-11.5,6.6
							c-15.4,55.7-98.3,34.9-99.2,34.7c-2.9-0.8-6,0-8.3,2.1c-2.3,2.1-3.5,5.1-3.2,8.3c3.6,41.3-3.3,70.6-20.7,87.1
							c-21.4,20.4-52,14.6-52.3,14.5c-0.9-0.2-24.7-5.7-40.1-35.3c-26.6-51.2-7.2-132.5,14.7-193.4c22.6-1.5,43.5-22.9,54-35.7
							c10.1,13.3,25.9,25.8,50.6,32.9c0.8,0.2,1.6,0.4,2.5,0.4c4.1,0,7.8-2.8,8.9-7.2c1.4-5.2-1.6-10.5-6.5-11.9
							c-64-18.4-54.9-77.6-54.5-80.2c0.9-5.3-2.5-10.3-7.6-11.2c-5.1-0.9-9.9,2.6-10.7,7.9c-0.1,0.8-3.2,20.2,3.6,42.4
							c0.9,3,2.1,6.2,3.5,9.4c-8.8,11.6-29.1,33.9-46.2,33.9h-0.5c-7.1-0.2-13.3-4.6-18.9-13.5c-14.7-23.5-18-70.8,1.9-109.4
							c2.8-5.4,7.2-12.7,13.2-18.6c5.9-5.9,13.4-10.5,22.3-10.5c47.5,0,68.9,22.6,87.8,42.6c3.3,3.5,6.5,6.9,9.7,10
							c1.8,1.8,4.2,2.7,6.7,2.6c0.3,0,32.6-1.2,65.5,9c41.7,13,65,37.7,69.2,73.4c-0.1,5.9-2.4,50.7-38.7,50.7h-0.2
							c-5.1,0-9.3,4.3-9.3,9.7c0,5.4,4.1,9.7,9.2,9.8h0.2c15.1,0,27.7-5.1,37.4-15.3c11.4-11.9,16.3-28.3,18.3-40.2
							c44,27.1,54.3,74.2,48.5,111.2c-4.7,30.1-20.1,53.1-36.6,54.8c-5.1,0.5-8.8,5.3-8.3,10.6c0.5,5,4.5,8.7,9.2,8.7
							c0.3,0,0.6,0,0.9,0c18.5-1.9,34.8-17.5,44.8-41.1C906.5,473.1,914.9,496.4,910,527.4z"/>
					</g>
				</g>
			</g>
		</g>
		<g>
			<g>
				<path class="st3" d="M664.8,703.4c0,13.3-6,25.6-16.1,35.7c-9.3,9.3-22,16.7-36.9,21.4c-11.2,3.5-23.7,5.5-36.8,5.5
					c-13.1,0-25.6-2-36.8-5.5c-14.9-4.7-27.7-12.1-36.9-21.4c-10.1-10.1-16.1-22.4-16.1-35.7c0-25.2,21.4-13.7,52.1-5.6
					c11.5,3,24.2,5.6,37.7,5.6c13.4,0,26.2-2.6,37.6-5.6C643.4,689.7,664.8,678.2,664.8,703.4z"/>
			</g>
			<path class="st2" d="M611.8,755.7c-11.2,3.5-23.7,5.5-36.8,5.5c-13.1,0-25.6-2-36.8-5.5c2.5-18.9,18.1-33.4,36.8-33.4
				C593.7,722.3,609.2,736.8,611.8,755.7z"/>
		</g>
		<g>
			<path class="st3" d="M519,601c0,0,0.1,0.8,0.3,2.3c0.1,0.8,0.2,1.7,0.3,2.8c0.1,0.6,0.2,1.1,0.2,1.8c0,0.7,0,1.5,0,2.3
				c0,1.6,0,3.4-0.1,5.3c-0.2,1.9-0.5,3.9-0.8,6c-0.3,2.1-1,4.4-1.5,6.8c-0.6,2.4-1.6,4.8-2.5,7.4c-1.1,2.5-2.3,5-3.7,7.6
				c-1.5,2.5-3,5.2-5,7.6c-3.7,5.1-8.4,9.7-13.8,13.8c-1.4,1-2.8,2-4.2,2.9c-1.4,1-3,1.7-4.5,2.6l-2.3,1.2l-2.4,1
				c-1.6,0.6-3.3,1.4-5,1.9c-3.4,1-6.9,2.1-10.4,2.5c-1.8,0.3-3.6,0.6-5.4,0.7l-2.7,0.2l-1.3,0.1l-0.7,0l-0.3,0l-0.2,0l-0.1,0
				c-0.3,0,0.5,0-0.7,0l-4.5-0.3l-1.1-0.1c-0.4,0-0.7,0-1.3-0.1l-2.9-0.4c-1.9-0.3-4-0.5-5.6-1.1c-1.7-0.5-3.4-1-5.2-1.5
				c-1.7-0.6-3.3-1.3-5-1.9l-2.4-1l-2.3-1.2c-1.5-0.9-3.1-1.6-4.5-2.6c-1.4-1-2.8-2-4.2-2.9c-5.4-4.1-10.2-8.7-13.8-13.8
				c-2-2.4-3.5-5.1-5-7.6c-1.4-2.6-2.6-5.2-3.7-7.6c-0.9-2.6-1.9-5-2.5-7.4c-0.5-2.4-1.2-4.6-1.5-6.8c-0.3-2.2-0.6-4.2-0.8-6
				c-0.1-1.9-0.1-3.6-0.1-5.1c0-0.8,0-1.5,0-2.2c0-0.7,0.1-1.3,0.2-1.9c0.1-1.2,0.2-2.2,0.3-3c0.2-1.6,0.3-2.5,0.3-2.5
				c0.3-2.6,2.6-4.4,5.1-4.1c1.9,0.3,3.4,1.7,3.8,3.5l0.1,0.6c0,0,0.2,0.7,0.5,2.1c0.4,1.4,0.6,3.4,1.5,5.8c0.4,1.2,0.8,2.5,1.3,4
				c0.6,1.4,1.2,2.9,1.8,4.5c0.7,1.6,1.6,3.2,2.4,4.8c0.9,1.7,2,3.3,3,5c1.2,1.6,2.4,3.4,3.7,5c1.5,1.6,2.7,3.4,4.5,4.9
				c3.1,3.3,6.9,6,10.9,8.5c4,2.5,8.6,4.3,13.2,5.7c1.2,0.3,2.4,0.6,3.6,0.8c0.6,0.2,1.2,0.3,1.7,0.3l1.6,0.2l1.6,0.3
				c0.2,0.1,0.6,0.1,1,0.1l1.1,0.1l4.5,0.2c-1.2,0-0.3,0-0.5,0h0.1l0.1,0l0.2,0l0.5,0l0.9,0l1.8-0.1c1.2,0,2.4-0.2,3.7-0.4
				c1.2-0.2,2.4-0.2,3.6-0.6c1.2-0.3,2.4-0.6,3.6-0.8c4.6-1.5,9.1-3.2,13.2-5.7c4-2.5,7.8-5.3,10.9-8.5c1.7-1.5,3-3.3,4.5-4.9
				c1.4-1.7,2.5-3.4,3.7-5c1-1.7,2.1-3.4,3-5c0.8-1.7,1.7-3.3,2.4-4.8c0.6-1.6,1.2-3.1,1.8-4.5c0.4-1.4,0.9-2.6,1.2-3.8
				c0.2-0.6,0.4-1.1,0.5-1.6c0.1-0.6,0.3-1.2,0.4-1.7c0.2-1.1,0.4-2,0.6-2.7c0.3-1.5,0.5-2.3,0.5-2.3c0.6-2.6,3.1-4.2,5.6-3.5
				C517.5,597.4,518.8,599.1,519,601z"/>
			<path class="st3" d="M764,601c0,0,0.1,0.8,0.3,2.3c0.1,0.8,0.2,1.7,0.3,2.8c0.1,0.6,0.2,1.1,0.2,1.8c0,0.7,0,1.5,0,2.3
				c0,1.6,0,3.4-0.1,5.3c-0.2,1.9-0.5,3.9-0.8,6c-0.3,2.1-1,4.4-1.5,6.8c-0.6,2.4-1.6,4.8-2.5,7.4c-1.1,2.5-2.3,5-3.7,7.6
				c-1.5,2.5-3,5.2-5,7.6c-3.7,5.1-8.4,9.7-13.8,13.8c-1.4,1-2.8,2-4.2,2.9c-1.4,1-3,1.7-4.5,2.6l-2.3,1.2l-2.4,1
				c-1.6,0.6-3.3,1.4-5,1.9c-3.4,1-6.9,2.1-10.4,2.5c-1.8,0.3-3.6,0.6-5.4,0.7l-2.7,0.2l-1.3,0.1l-0.7,0l-0.3,0l-0.2,0l-0.1,0
				c-0.3,0,0.5,0-0.7,0l-4.5-0.3l-1.1-0.1c-0.4,0-0.7,0-1.3-0.1l-2.9-0.4c-1.9-0.3-4-0.5-5.6-1.1c-1.7-0.5-3.4-1-5.2-1.5
				c-1.7-0.6-3.3-1.3-5-1.9l-2.4-1l-2.3-1.2c-1.5-0.9-3.1-1.6-4.5-2.6c-1.4-1-2.8-2-4.2-2.9c-5.4-4.1-10.2-8.7-13.8-13.8
				c-2-2.4-3.5-5.1-5-7.6c-1.4-2.6-2.6-5.2-3.7-7.6c-0.9-2.6-1.9-5-2.5-7.4c-0.5-2.4-1.2-4.6-1.5-6.8c-0.3-2.2-0.6-4.2-0.8-6
				c-0.1-1.9-0.1-3.6-0.1-5.1c0-0.8,0-1.5,0-2.2c0-0.7,0.1-1.3,0.2-1.9c0.1-1.2,0.2-2.2,0.3-3c0.2-1.6,0.3-2.5,0.3-2.5
				c0.3-2.6,2.6-4.4,5.1-4.1c1.9,0.3,3.4,1.7,3.8,3.5l0.1,0.6c0,0,0.2,0.7,0.5,2.1c0.4,1.4,0.6,3.4,1.5,5.8c0.4,1.2,0.8,2.5,1.3,4
				c0.6,1.4,1.2,2.9,1.8,4.5c0.7,1.6,1.6,3.2,2.4,4.8c0.9,1.7,2,3.3,3,5c1.2,1.6,2.4,3.4,3.7,5c1.5,1.6,2.7,3.4,4.5,4.9
				c3.1,3.3,6.9,6,10.9,8.5c4.1,2.5,8.6,4.3,13.2,5.7c1.2,0.3,2.4,0.6,3.6,0.8c0.6,0.2,1.2,0.3,1.7,0.3l1.6,0.2l1.6,0.3
				c0.2,0.1,0.6,0.1,1,0.1l1.1,0.1l4.5,0.2c-1.2,0-0.3,0-0.5,0h0.1l0.1,0l0.2,0l0.5,0l0.9,0l1.8-0.1c1.2,0,2.4-0.2,3.7-0.4
				c1.2-0.2,2.4-0.2,3.6-0.6c1.2-0.3,2.4-0.6,3.6-0.8c4.6-1.5,9.1-3.2,13.2-5.7c4-2.5,7.8-5.3,10.9-8.5c1.7-1.5,3-3.3,4.5-4.9
				c1.4-1.7,2.5-3.4,3.7-5c1-1.7,2.1-3.4,3-5c0.8-1.7,1.7-3.3,2.4-4.8c0.6-1.6,1.2-3.1,1.8-4.5c0.5-1.4,0.9-2.6,1.2-3.8
				c0.2-0.6,0.4-1.1,0.5-1.6c0.1-0.6,0.3-1.2,0.4-1.7c0.2-1.1,0.4-2,0.6-2.7c0.3-1.5,0.5-2.3,0.5-2.3c0.6-2.6,3.1-4.2,5.6-3.5
				C762.4,597.4,763.7,599.1,764,601z"/>
		</g>
	</g>
</g>
</svg>
