<?xml version="1.0" encoding="utf-8"?>
<!-- Generator: Adobe Illustrator 23.0.5, SVG Export Plug-In . SVG Version: 6.00 Build 0)  -->
<svg version="1.1" id="Capa_1" xmlns="http://www.w3.org/2000/svg" xmlns:xlink="http://www.w3.org/1999/xlink" x="0px" y="0px"
	 viewBox="0 0 1109 939" style="enable-background:new 0 0 1109 939;" xml:space="preserve">
<style type="text/css">
	.st0{fill:#CEDDED;}
	.st1{fill:#ABC1FF;}
	.st2{fill:#7E5220;}
	.st3{fill:#6B4415;}
	.st4{fill:#F3D33E;}
</style>
<g>
	<path class="st0" d="M547.5,511.8c0,0-30.5-129.4-90.6-141.4c-60.1-12-177.6,109.7-379.7,109.7L37.6,585.9h509.9V511.8z"/>
	<path class="st1" d="M547.5,511.8c0,0,5-113.4-27.1-142.2c-39.8-35.8-187.1,40.9-363.5-174.6l-54.6,189c0,0,64.8,73,176.6,93.7
		C421.8,504.2,480.5,355.6,547.5,511.8z"/>
	<path class="st0" d="M547.5,511.8c0,0,30.5-129.4,90.6-141.4c60.1-12,177.6,109.7,379.7,109.7l39.6,105.7H547.5V511.8z"/>
	<path class="st1" d="M547.5,496.7c0,0,14.6-129.4,74.7-143.3c60.1-13.8,196.7,83.5,234.9,90.7c38.2,7.2,151.6,13.2,151.6,13.2
		l21,54.5c0,0-131.2-2.2-171.2-10.1c-49.2-9.6-155.7-117.7-228.1-99.7C558,420.1,549.8,512,549.8,512L547.5,496.7z"/>
	<g>
		<rect x="13" y="585.9" class="st2" width="1079" height="52.9"/>
		<path class="st2" d="M585.7,682h-76.5c-21.9,0-39.6-31.2-39.6-69.7l0,0h155.7l0,0C625.3,650.8,607.6,682,585.7,682z"/>
		<path class="st3" d="M579,643.1H516c-18,0-32.7-25.7-32.7-57.5l0,0l64.2-88.9l64.2,88.9l0,0C611.7,617.3,597.1,643.1,579,643.1z"
			/>
		<path class="st4" d="M611.7,585.6c0,12.6-2.3,24.3-6.2,33.8l-58-80.3l-58,80.3c-3.9-9.5-6.2-21.2-6.2-33.8l64.2-88.9L611.7,585.6z
			"/>
	</g>
</g>
</svg>
