<?xml version="1.0" encoding="utf-8"?>
<!-- Generator: Adobe Illustrator 23.0.5, SVG Export Plug-In . SVG Version: 6.00 Build 0)  -->
<svg version="1.1" id="Capa_1" xmlns="http://www.w3.org/2000/svg" xmlns:xlink="http://www.w3.org/1999/xlink" x="0px" y="0px"
	 viewBox="0 0 1109 939" style="enable-background:new 0 0 1109 939;" xml:space="preserve">
<style type="text/css">
	.st0{fill:#404251;}
	.st1{fill:#4B4E5B;}
	.st2{fill:#F3D33E;}
</style>
<g>
	<g>
		<path class="st0" d="M774.6,274l-417,153.6l73.6,228.6c153.9,23.2,308.9-34.7,416.4-155.7L774.6,274z"/>
		<g>
			<polygon class="st0" points="1015,200.3 639.4,566.8 133.9,529.9 186.5,478.6 214.8,451 509.5,163.4 906.1,192.4 944.2,195.2 			
				"/>
		</g>
		<g>
			<polygon class="st1" points="944.2,195.2 621.2,510.3 186.5,478.6 214.8,451 509.5,163.4 906.1,192.4 			"/>
		</g>
	</g>
	<g>
		<g>
			<polygon class="st2" points="117.9,844 97.5,842 124.2,522.2 567.9,325.9 575.7,346.4 143.5,537.5 			"/>
		</g>
		<path class="st2" d="M118.5,724.7l-4.2-1.4c-12.6,5.2-56.7,31.6-65.3,150.4l91.3,15.3C164,773.1,129.4,733.9,118.5,724.7z"/>
	</g>
</g>
</svg>
