<?xml version="1.0" encoding="utf-8"?>
<!-- Generator: Adobe Illustrator 23.0.5, SVG Export Plug-In . SVG Version: 6.00 Build 0)  -->
<svg version="1.1" id="Capa_1" xmlns="http://www.w3.org/2000/svg" xmlns:xlink="http://www.w3.org/1999/xlink" x="0px" y="0px"
	 viewBox="0 0 719 943" style="enable-background:new 0 0 719 943;" xml:space="preserve">
<style type="text/css">
	.st0{fill:#F3D33E;}
	.st1{fill:#EEC140;}
	.st2{fill:#F6E0B2;}
	.st3{fill:#404251;}
	.st4{fill:#DE5931;}
	.st5{fill:#942314;}
</style>
<g>
	<path class="st0" d="M188.1,698.8L512.3,190c9.7-15.3,37.2-15.1,61.4,0.3l53,33.8c24.2,15.4,35.9,40.2,26.1,55.4L328.6,788.3
		L258.8,818l-65.5,27.8l-2.5-71.1L188.1,698.8z"/>
	<path class="st1" d="M258.4,743.6l341.7-536.4l26.5,16.9c24.2,15.4,35.9,40.2,26.1,55.4L328.6,788.3L258.4,743.6z"/>
	<polygon class="st2" points="188.1,698.8 328.6,788.3 258.8,818 193.3,845.8 190.8,774.6 	"/>
	<polygon class="st3" points="190.8,774.6 258.8,818 193.3,845.8 	"/>
	<path class="st4" d="M479,242.2l33.2-52.2c9.7-15.3,37.2-15.1,61.4,0.3l53,33.8c24.2,15.4,35.9,40.2,26.1,55.4l-33.2,52.2
		L479,242.2z"/>
	
		<rect x="456.2" y="284.1" transform="matrix(-0.8434 -0.5373 0.5373 -0.8434 831.9749 847.2634)" class="st3" width="166.6" height="36.6"/>
	<path class="st5" d="M549.3,286.9l50.8-79.7l26.5,16.9c24.2,15.4,35.9,40.2,26.1,55.4l-33.2,52.2L549.3,286.9z"/>
</g>
</svg>
