<?xml version="1.0" encoding="utf-8"?>
<!-- Generator: Adobe Illustrator 23.0.5, SVG Export Plug-In . SVG Version: 6.00 Build 0)  -->
<svg version="1.1" id="Layer_1" xmlns="http://www.w3.org/2000/svg" xmlns:xlink="http://www.w3.org/1999/xlink" x="0px" y="0px"
	 viewBox="0 0 3000 2000" style="enable-background:new 0 0 3000 2000;" xml:space="preserve">
<style type="text/css">
	.st0{fill:#EDDAD3;}
	.st1{fill:#0092B3;}
	.st2{fill:#276A75;}
	.st3{fill:#1F5966;}
	.st4{fill:#EEA886;}
	.st5{fill:#202338;}
	.st6{fill:#2F6B8C;}
	.st7{fill:#323657;}
	.st8{fill:#C2B2AB;}
	.st9{fill:#163342;}
	.st10{fill:#A77860;}
	.st11{fill:#565E96;}
	.st12{fill:#CFBEB6;}
	.st13{fill:#40498C;}
	.st14{fill:#FFC05C;}
	.st15{fill:#D69D40;}
	.st16{fill:#EFAA88;}
	.st17{fill:#EEA987;}
	.st18{fill:#C9B9B3;}
	.st19{fill:#CFBFB8;}
	.st20{fill:#25354D;}
	.st21{fill:#2F4563;}
	.st22{fill:#C4C4C4;}
	.st23{fill:#548AD1;}
	.st24{fill:#4977B5;}
	.st25{fill:#F08D29;}
	.st26{fill:#D47C24;}
	.st27{fill:#C27120;}
	.st28{fill:#446FA8;}
	.st29{fill:#EB4747;}
	.st30{fill:#272A45;}
	.st31{fill:#5E9BEB;}
</style>
<g>
	<g>
		<g>
			<path class="st0" d="M1155.9,733c0,0-82.4,38.3-111.7,30.9c-13.5-3.4-31.4-22.5-48.3-44.9c-5.6-7.4-11.1-15.1-16.3-22.8
				c0,0,0,0,0,0c-20.8-30.6-37.1-60-37.1-60s-61.5-73.5-12.1-106.2c0,0,17.9-6.8,34.3,11.1c16.5,18,35.7,55.6,40,65.2
				c4.3,9.6,64.7,98.4,67.8,100.4c3.1,2,29.5-5.1,50.7-6.9c34.5-2.9,27.6-4.4,27.6-4.4L1155.9,733z"/>
		</g>
		<rect x="917.4" y="619.2" class="st1" width="238.5" height="179"/>
		<rect x="917.4" y="619.2" class="st2" width="238.5" height="80.4"/>
		<path class="st3" d="M703.2,1137.2l-19.3-3.4c-29.3-5.2-48.8-33.6-43.7-63.5l22-128.6c5.1-29.8,33-49.8,62.2-44.6l19.3,3.5
			c29.3,5.2,48.8,33.6,43.7,63.5l-22,128.6C760.3,1122.4,732.4,1142.4,703.2,1137.2z"/>
		<g>
			<g>
				<path class="st4" d="M1162.3,657.2c0,0-29.5-6.8-37.5-0.5s2.6,9.3,2.6,9.3s-10.4-3.2-13.6,4.8c-3.2,8,9.3,10.9,9.3,10.9
					s-8.5-0.3-8.7,8.8c-0.2,9,10.7,9.1,10.7,9.1s-12,6.2-3.4,13.6c14.6,12.5,36.1,7.7,36.1,7.7s5.1-1.7,4.7-10.4
					c0,0,12.7-3.2,7.2-17.3c0,0,10-11.2-0.6-18.2C1168.9,675.1,1178.8,662.5,1162.3,657.2z"/>
			</g>
		</g>
		<g>
			<path class="st5" d="M1009,1636.4c0,0,22.8,24.4,45.9,29.5c23.1,5.1,39.3,11.6,39.4,25.6c0.2,14-66.5,23.2-92.9,9.1
				c-39.5-21.1-43.5-14.7-47.8-25.2c-4.4-10.5,5.3-38.7,5-42C958.2,1629.2,1009,1636.4,1009,1636.4z"/>
		</g>
		<g>
			<path class="st6" d="M1006.5,1624.7c0,0,3,11.4,2.6,11.7s-52.1,6.1-50.5-3c1.3-7.4,3.1-15.5,3.1-15.5L1006.5,1624.7z"/>
		</g>
		<g>
			<path class="st5" d="M752,1642.7c0,0,16.7,23.8,39.1,29.2c22.1,5.4,36.4,15.7,37.5,29.3c1.1,13.6-52.1,31.4-89.4,7.5
				c-24.5-15.7-33.7-14.8-38.6-24.8c-4.9-10,2.6-37.9,2.1-41.2C702,1638.8,752,1642.7,752,1642.7z"/>
		</g>
		<g>
			<path class="st6" d="M751.3,1631c0,0,1.1,11.5,0.7,11.8c-0.4,0.3-49.6,9.1-49.3,0.1c0.2-7.2,3.1-16.1,3.1-16.1L751.3,1631z"/>
		</g>
		<g>
			<path class="st7" d="M954.4,938.5c0,0,23.9,177.2,33.7,237.1c11.4,70,15.3,127.9,18.5,164.2c4,45.6,1.8,278.9,4.6,292.3
				c2.8,13.3-56.5,6.4-56.5,6.4s-43.5-304.2-55.4-352.8c-11.1-45.2-41.7-231.6-51.8-219.3c-10.1,12.3-43,224.7-50.5,260.3
				c-7.5,35.7-37.8,316.4-37.8,316.4s-50.4,11.2-64.2,0c0,0,3.1-250.3,7.9-317.2c1.8-25.5-15.8-305,26.4-417.8
				C751.5,848.7,954.4,938.5,954.4,938.5z"/>
		</g>
		<path class="st0" d="M884.3,513.5c0,0,63.3,13.3,70.8,20.1c8.2,7.2,22.5,77.9,23.4,97.6c0.9,19.7-7.6,102-15.8,132.6
			c-8.2,30.6-6.3,190.5-2.6,215.7c0,0-123.9,26.2-249.1,9.6c0,0,18.6-139.8,13.6-181.7c-6.4-53.8-21.9-177.7-21.9-177.7
			s16.7-83.4,27.9-93c11.2-9.6,88.7-25.3,88.7-25.3L884.3,513.5z"/>
		<path class="st8" d="M743.4,681.9c0,0-12,79.3-11.1,84.4C733.2,771.4,678.2,750.4,743.4,681.9z"/>
		<path class="st4" d="M858.1,314c0,0,76.1-28.7,71.3,74.5c-4.8,103.2-22.6,113.7-72.6,99.3s-54.3-79.5-60.8-110.9
			C789.5,345.5,833.3,318.5,858.1,314z"/>
		<path class="st4" d="M896.8,529.9c0,0-39.5,32.7-77.6-18.5c0,0,1.7-41.5-10-80.3c-11.7-38.8,79.7,51.7,79.7,51.7
			c-1,0.7-1.1,4.6-0.6,10c0.5,4.6,1.5,10.3,2.9,16C894.6,521.8,893.8,519.5,896.8,529.9z"/>
		<path class="st9" d="M806.6,428c0,0-0.2-27.6,11-30.1c11.2-2.5,17,13.4,17,13.4l9-0.5c0,0-8.1-27.9,2.6-34.3
			c10.7-6.4,74.8-0.8,82.8-10.2s-3.6-65.3-21.1-70.7c-17.5-5.5-65.2-16.6-95.5,11c0,0-27.2,0.2-27.1,33.4
			C785.5,361.8,797.5,413,806.6,428z"/>
		<path class="st10" d="M891.3,508.8c-59-10.1-67.8-44.3-67.9-44.9c22.9,30.2,65,28.9,65,28.9C888.8,497.4,889.8,503,891.3,508.8z"
			/>
		<path class="st4" d="M830.4,386.2c-3.4-9.1-22.3-8-20.4,6.5s17.6,36.6,23.9,32.5C840.2,420.9,835,398.7,830.4,386.2z"/>
		<path class="st4" d="M798.7,515.8c0,0,35.7,73.6,88.2,67.6c52.5-6,22.1-57.3,17.1-65.5C903.9,518,872.4,497.3,798.7,515.8z"/>
		<path class="st8" d="M732.3,766.3c0,0,60.6,65.7,80.5,81.7c0,0-72.6-98.5-78.2-109C734.6,739,715.7,741.5,732.3,766.3z"/>
		<path class="st3" d="M954.2,532.7c-10-6-20.3-7-20.3-7c0.3,0.8,27.7,85,10.5,185.7C921.6,844.1,833.9,956,690.8,1034.8l8.3,15.7
			c82.6-45.5,147.3-101.3,192.4-165.9c36.2-51.9,59.9-109.5,70.3-171.1C979.6,608.5,955.4,536,954.2,532.7z"/>
		<g>
			<g>
				<g>
					<g>
						<g>
							<path class="st4" d="M873,948.6c0,0-5.8-0.5-8.3-2c0,0-4.3-3.1-7.4-5.1c-1-0.6-1.9-1.2-2.5-1.4c-2.5-1.2-8.5-2.9-13.8-7.5
								c-5.3-4.5-23.4-30.1-23.4-30.1l10.8-13.9l8.3-14.5c0,0,42,6.6,47.4,10.3c0.5,0.4,1,0.7,1.5,1.1c4.3,3.5,6.1,8,8.1,10.1
								c0.8,0.8,7.7,9.1,7.2,12.3c-0.8,4.5-3.1,7.2-5.8,8.5c0,0-1.9,8.7-6.5,12.4c0,0-1.5,8-8.5,11
								C880.2,939.8,877.8,947.8,873,948.6z"/>
						</g>
					</g>
				</g>
			</g>
		</g>
		<path class="st0" d="M765.4,534.9c8.3,3.3,17.1,23.8,10.5,63.9c-7,43.1-21,61.5-26.6,71.6c-5.6,10.1-36.4,72.2-30.9,80.3
			c5.5,8.2,57.9,60.8,60.9,65.1c3,4.3,61.5,58.3,61.5,58.3l-29.7,42.4c0,0-126.2-100.6-136-110.6s-39.3-31.1-28.4-66.2
			c11.1-35.7,30.9-119.1,34.5-125.6C684.7,607.6,710.5,513.2,765.4,534.9z"/>
	</g>
	<g>
		<path class="st11" d="M2714.5,1641.2c0,0,37.9-8,39.2-9.2c1.3-1.2,9.2-16.3,15.1-13.8c5.9,2.5,6.3,20.8,12.1,23.8
			s51.7,32.8,57.4,38.3c5.7,5.5,40,1.6,44.1,11.2s4.9,32.5-46.5,28s-109.7,4.9-120.9-1C2703.9,1712.6,2711.3,1656,2714.5,1641.2z"/>
		<path class="st11" d="M2408.2,1620c0,0,38.7-1.9,40.2-2.8s11.7-14.7,17.1-11.2s2.9,21.5,8.2,25.4s45.8,40.7,50.5,47
			c4.7,6.3,39.2,8,41.7,18.1c2.5,10.2-0.4,32.9-50.4,20.2s-109.1-12.7-119.2-20.3C2386.3,1688.9,2402.6,1634.1,2408.2,1620z"/>
		<polygon class="st4" points="2408.2,1620 2418.5,1585.9 2464.6,1592.6 2458.3,1623.2 		"/>
		<polygon class="st4" points="2711.6,1622.6 2714.5,1641.2 2764.8,1631.9 2761.6,1604.1 		"/>
		<g>
			<path class="st7" d="M2593.4,1027.2c0,0-7.8,66.6-16.4,134.8c-1.9,15.5-3.9,31.1-5.9,46.1c-6.4,49-12.3,90.7-14.8,98
				c-6.8,19.7-73.9,320.7-73.9,320.7s-83.7,4-86.2-4c0,0,62.3-332.5,61.4-343.7c-0.9-11.2,10-326,10-326
				S2589.6,1009.1,2593.4,1027.2z"/>
		</g>
		<g>
			<path class="st7" d="M2669.4,940.5c0,0,57.2,299,62.7,322.6s52.3,369.9,52.3,369.9s-33.5,22.4-82.6,19.9
				c0,0-73.4-370.4-79.3-381.8c-23.1-43.8-100.9-250.3-112.1-280.7c-11.2-30.4-44.3-71.9-44.3-71.9S2555.5,880.2,2669.4,940.5z"/>
		</g>
		<g>
			<path class="st12" d="M2635.8,513.9c0,0,31.9,61.5,37.6,98.4c5.7,37-20.5,157.1-19.8,178c1.9,56.3,20.8,176.1,20.8,176.1
				l-172.8,10.8c0,0-14.7-57.7-24.3-128.2c-9.6-70.5,2.1-131.3,1-172.3c-3.5-139.8,104.3-187.5,104.3-187.5L2635.8,513.9z"/>
		</g>
		<path class="st13" d="M2671.3,946.4l5.1,30.9c0,0-128.2,8.8-210,8.1l1.7-27.6C2468.2,957.8,2590.7,955.9,2671.3,946.4z"/>
		<g>
			<path class="st4" d="M2705.3,339.6c0,0,23.6,31.3,15.2,38c-6.9,5.5,14.6,36.5,17.5,41.7c3,5.1-12.2,11.5-15.1,15.5
				c-2.8,4-6.2,48.9-19,52.1s-74.5-8.3-92.9-22.5c-18.5-14.2-42.9-87.2-37-120.4C2579.9,310.9,2663.9,284.9,2705.3,339.6z"/>
		</g>
		<g>
			<path class="st4" d="M2663.6,483.1c0,0-1.2,4.1-2.7,9.9c-0.6,2.4-1.3,5.2-2.1,8.2c-0.6,2.3-1.2,4.7-1.8,7.2
				c-3.8,15.7-7.8,34.7-7.4,43.8c0.7,17-67-62.8-67-62.8s22.2-53.6,28.8-114.6C2618,313.8,2663.6,483.1,2663.6,483.1z"/>
		</g>
		<g>
			<path class="st7" d="M2710.1,346.5c0,0,13.2-39.7-25-61.9s-93.9,35.3-100.8,38.2s-45.5,11.2-15.7,79.3
				c27,61.5,25.3,54.9,25.3,54.9s11.9-31.8,18.5-38.3c10.3-10.1,35.8-11.9,35.8-11.9s-16.9-30.1,1.3-37.5
				C2667.6,362,2690,342.3,2710.1,346.5z"/>
		</g>
		<g>
			<path class="st4" d="M2625.4,391.5c-2.3-4.1-10.5-22.2-25-8.7c-14.5,13.5,17.1,45,20,45.1C2623.3,428,2645,426.3,2625.4,391.5z"
				/>
		</g>
		<path class="st10" d="M2663.6,483.1c0,0-1.2,4.1-2.7,9.9c-0.6,2.4-1.3,5.2-2.1,8.2c-34.8-18.5-44.7-34.2-45-34.7
			C2630,474.8,2663.6,483.1,2663.6,483.1z"/>
		<g>
			<path class="st14" d="M2662.6,641.3c-2.6,13-4.9,26-7,39.1v0c-4.5,28.8-7.6,57.7-9.7,85.8c-0.8,10-1.4,19.9-1.9,29.6
				c-6,116.1-48.1,238.7-48.1,238.7s-99.2-2.1-122.4-13.8c0,0-11.7-153-1.7-282.2c0.8-10,1.7-20,2.8-29.8c0,0,0,0,0,0
				c11.4-104.7,30-207.4,108-219.2C2584.2,490.7,2676.4,573.2,2662.6,641.3z"/>
		</g>
		<path class="st14" d="M2471.2,747.7c0,0,2,125.9-59.6,251.2c-7.5,15.3,120.1,32.2,120.1,32.2L2471.2,747.7z"/>
		<path class="st3" d="M2612.9,1151.8l-211.6-33.6c-18-2.9-29.5-20.9-24.3-38.4l42.8-145.8c4.4-14.8,19.1-24,34.3-21.3l191.9,33.8
			c16.3,2.9,27.3,18.3,24.7,34.6l-23.1,145.5C2644.9,1143.1,2629.4,1154.4,2612.9,1151.8z"/>
		<g>
			<path class="st3" d="M2661.1,1034.4l-255.9-30.6l0.8-5.7c0.1-0.8,11.6-82,39.2-182.5c25.5-93,70.5-222.2,139.8-309.6l4.6-5.8
				l4.4,5.9c0.8,1,19.5,26.7,37.2,104.2c16.1,70.8,34.4,200.7,30.1,417.9L2661.1,1034.4z M2418,993.9l232,27.8
				c3.7-210.9-14-337.7-29.6-407.1c-12.3-54.9-25.3-83.4-31.6-95.1c-65.3,85.7-108.1,209.4-132.7,299.1
				C2432.8,903.2,2421.1,973.8,2418,993.9z"/>
		</g>
		<path class="st14" d="M2579.3,489.9l7-10.3c0,0,53.4,41.1,71.6,114.5C2658,594.1,2618.8,518.8,2579.3,489.9z"/>
		<path class="st15" d="M2568.3,615.3c0,0-20.4,114.1-13.4,124.8c6.9,10.7,53.3,78.3,53.3,78.3S2399.9,766.1,2568.3,615.3z"/>
		<g>
			<path class="st16" d="M2685.8,979.3c0,0-7-2.4-9.6-4.9c0,0-4.3-5-7.6-8.3c-1.1-1.1-2-2-2.6-2.5c-2.8-2.2-9.5-6.1-14.7-13.2
				c-5.2-7.1-21.1-33.9-21.1-33.9l20.4-17.6l12.8-19.6c0,0,49.4,19.9,55,26c0.5,0.6,1.1,1.2,1.5,1.8c4.3,5.6,5.1,11.5,7,14.7
				c0.7,1.2,6.8,13.3,5.2,17c-2.2,5.1-5.9,7.8-9.7,8.5c0,0-4.8,9.9-11.6,13c0,0-4.2,9.3-13.6,10.7
				C2697.1,970.9,2691.9,979.8,2685.8,979.3z"/>
		</g>
		<path class="st14" d="M2592.8,561.3c0,0-53.2,106.2-61.1,172c-2.5,20.6,146,144.1,144.8,152.1c-1.2,8-43.6,44-43.6,44
			s-181.1-156.3-182.3-169.3c-1.2-13,36.9-180.6,59.6-215.6c17-26.2,50.3-60.5,73.4-49.3C2614.6,510.3,2592.8,561.3,2592.8,561.3z"
			/>
	</g>
	<g>
		<path class="st7" d="M2096.1,786.8c-7.3,31.9-20.1,64.6-40.6,96.9c0,0-49,11.1-66.2-21.3c-6.8-12.8-7.9-52-2.9-101
			c7.8-75.4,30.1-173.8,69.1-234C2055.5,527.4,2127.6,649,2096.1,786.8z"/>
		<path class="st7" d="M2096.1,786.8c-7.3,31.9-20.1,64.6-40.6,96.9c0,0-49,11.1-66.2-21.3c-6.8-12.8-7.9-52-2.9-101L2096.1,786.8z"
			/>
		<path class="st9" d="M2207.4,423.6c0,0,51.1,107.8,15.9,114.2c-48.3,8.8-67.9-80.4-67.9-80.4L2207.4,423.6z"/>
		<path class="st4" d="M2291.9,932.5c0,0-2.1,12.5-6.3,25.3c-2,6.3-1.1,46.5-0.7,51.7c0.4,4.3,3.2,1.6,4.5-1.3
			c0.8-1.7,2.7-15.7,4.9-23.2c1.9-6.3,3.6-8.7,4.8-6.8c1.2,2,4.5,27.7,2.7,38.9c-1.8,11.2,1.9,36.5,7.6,32.5
			c5.6-4,16.9-50.7,14.9-67.9c-2-17.3-9.3-38.7-9.3-38.7L2291.9,932.5z"/>
		<path class="st0" d="M2284.4,942.2c-0.5-5.5-25.7-87.8-30.3-112.5c-4.7-24.7-8.6-47.3-11.2-57.2c-0.2-0.7-0.4-1.8-0.8-3.3
			c-1.7-7.3-5.4-23.6-9.4-38.8c-0.3-1.1-0.6-2.1-0.8-3.2l0.1-5.7c-2.8-10.6,1.8-16,2.8-24c0.3-2.4,0.3-5.1-0.4-8.2
			c0-0.1,0-0.2-0.1-0.3c-3.1-14.1-5.3-26.4-5.2-33.1c0.2-22.4-20-130.3-20-130.3s39.1,13.3,51.1,35.3c11.8,21.5,13.9,73,14.3,84
			c0.4,10.9,7.2,102.3,8.6,121c1.4,18.6,3.8,34.5,7.4,47.1c3.7,12.6,28.7,122.2,28.8,132.1C2319.4,947,2284.9,947.7,2284.4,942.2z"
			/>
		<path class="st4" d="M2063.4,864.7c0,0-33.4,43.5-42.5,95s5.3,224.6,5,250.1s-24.1,88.9-19.4,136.9s44.3,289.6,44.3,289.6
			l31.1-5.7c0,0-3.7-250.7-0.7-270.9c3-20.2,8.9-93.6,10.1-101.9c1.2-8.3,75.2-226.1,75.2-263.3
			C2166.5,957.3,2143.9,804,2063.4,864.7z"/>
		<path class="st4" d="M2231.3,881.7c0,0,54.9,209.6,61.4,238.6c6.5,29,16,53,16,65.3c0,28.6-10.6,74.5-10.6,74.5l-87.1,342.4
			l-33.3,7.4c0,0,21.2-216.4,22.2-255.5c1-39.2,31.2-94.9,25.3-111.5c-5.9-16.6-95.4-208-95.4-208S2062,820.8,2231.3,881.7z"/>
		<path class="st3" d="M2308.6,1185.6c0,0-127,54.5-316.1,54.5c0,0,8.3-246.4,35.8-308.1c27.5-61.7,207.3-34,207.3-34
			S2308.6,1133.9,2308.6,1185.6z"/>
		<g>
			<path class="st0" d="M2169.1,509.6c0,0,29.3,13.8,39.5,15.9c10.2,2,49.7,53.4,56.6,72.1c6.9,18.7,0,46.8-14.3,79.8
				c-14.3,33-0.8,44-7.3,77c-6.5,33-6.5,122.9-5.3,141.3s-178.7,64.1-216.5,30.7c0,0,25.2-88.4,45.9-133.1c4-8.6,6.1-47,1.6-58.4
				c-4.5-11.4-55-96.5-55-96.5s-10.4-84.9,11.6-102c19.1-14.9,78-21.6,87.4-24.8C2122.7,508.2,2149.9,506.8,2169.1,509.6z"/>
		</g>
		<g>
			<path class="st0" d="M2250.9,677.4c-14.3,33-0.8,44-7.3,77c-6.5,33-6.5,122.9-5.3,141.3c1.2,18.3-178.7,64.1-216.5,30.7
				c0,0,9.9-34.5,22.3-71.3c1.5-4.5,3.1-9.1,4.7-13.7c6.2-17.6,12.7-34.8,18.9-48.1c4-8.6,6.1-47,1.6-58.4
				c-4.5-11.4-55-96.5-55-96.5s-10.4-84.9,11.6-102c7.5-5.8,21.2-10.4,35.6-14c5.4-1.3,10.9-2.6,16.3-3.7
				c16.6-3.4,31.3-5.7,35.6-7.1c9.4-3.3,36.6-4.7,55.8-1.8c0,0,29.3,13.8,39.5,15.9c10.2,2,49.7,53.4,56.6,72.1
				C2272.1,616.3,2265.2,644.5,2250.9,677.4z"/>
		</g>
		<g>
			<path class="st4" d="M2183.1,475.8c0,0-5.9,53.8-4.6,71.3c0,0-30.5,30.5-65.1-35.6c0,0,14.6-27.3,3.6-64.5
				C2105.9,409.9,2183.1,475.8,2183.1,475.8z"/>
		</g>
		<path class="st17" d="M2093,374.9c0,0-6.7-8.1-9.2,0.1c-2.5,8.1,5.7,32.3,6.6,35.8c0,0,4.1,13.6,5.7,11.8
			C2097.7,420.8,2093,374.9,2093,374.9z"/>
		<path class="st17" d="M2210.5,375.9c0,0,6.7-8.1,9.2,0.1c2.5,8.1-5.7,32.3-6.6,35.8c0,0-4.1,13.6-5.7,11.8
			C2205.8,421.8,2210.5,375.9,2210.5,375.9z"/>
		<path class="st17" d="M2162.3,297.6c0,0,61.7,9.5,52.7,106.7s-63.5,89.5-67.1,89.4s-54.6,2-59.1-116.6
			C2088.8,377.1,2086.7,289.4,2162.3,297.6z"/>
		<path class="st9" d="M2100.6,371.3c0,0,68.5,20.4,101.3,13.9c0,0,2.1,12.1,6.8,12.8s7.1-23.1,7.1-23.1s1.6-79-69.9-79.8
			c-71.5-0.7-57,85.6-57,85.6l1,14.8C2089.9,395.5,2100.2,399.5,2100.6,371.3z"/>
		<path class="st10" d="M2123.6,484.4c0,0,21.6,20.5,54.9,1.7c0,0-9.8,16.4-28.4,16C2131.4,501.7,2123.6,484.4,2123.6,484.4z"/>
		<path class="st4" d="M2089.9,516.2c0,0,36.9,59.9,78.5,57.4c57.6-3.5,27.3-52.3,27.3-52.3s-14.3-8.2-18.4-9
			c-4-0.8-63.6-1.5-63.6-1.5L2089.9,516.2z"/>
		<path class="st7" d="M2170.1,760.6c-5.7,34.1-20.8,59.5-45,75.5c-23.2,15.4-50.4,19.2-71.6,19.2c-3.3,0-6.4-0.1-9.3-0.3
			c1.5-4.5,3.1-9.1,4.7-13.7c19.9,0.5,46.7-2.2,68.7-16.8c20.8-13.8,33.9-36.2,39-66.3c10.8-64.3-1.1-123-35.1-174.1
			c-25.5-38.4-59.6-61.7-59.9-61.9c0,0,5.3-2.8,16.2-3.7c0,0,0,0,0,0c1.4,0.9,27.8,17,54.8,57.4
			C2157.5,613.4,2184.2,675.7,2170.1,760.6z"/>
		<g>
			<g>
				<g>
					<g>
						<g>
							<path class="st4" d="M2179.6,802.9c0,0-5.3,1.7-7.9,1.3c0,0-4.8-1.1-8.3-1.6c-1.1-0.2-2.1-0.3-2.7-0.3
								c-2.6-0.1-8.4,0.6-14.7-1.4c-6.3-1.9-31.1-17.2-31.1-17.2l4.4-15.8l2.1-15.4c0,0,38.9-9.6,45-8.5c0.6,0.1,1.2,0.3,1.7,0.4
								c5,1.5,8.1,4.6,10.7,5.7c0.9,0.4,9.9,5,10.6,7.9c0.9,4.1-0.1,7.3-2.1,9.4c0,0,1.5,8.1-1.2,12.9c0,0,1.6,7.4-3.4,12.5
								C2182.7,792.8,2183.5,800.5,2179.6,802.9z"/>
						</g>
					</g>
				</g>
			</g>
		</g>
		<g>
			<path class="st0" d="M2067.3,527.4c0,0-38.4-6.6-59.4,27.5c-24,39.1-23.6,57.1-27.3,76.9c-3.5,18.6-15,48.7-16.4,53.9
				c-1.4,5.2-29.3,58.6-17.8,81.2c11.6,22.7,170.8,25.3,172.1,30.1c0.8,3,8.4-47.6,8.4-47.6s-53.6-8-70.3-9.5
				c-19.9-1.7-38.2-13.1-35.6-22.8c5.7-21.4,19-51.4,24.4-61.5C2050.7,645.4,2097.8,542,2067.3,527.4z"/>
		</g>
		<path class="st0" d="M2186.9,1606.8c0,0,12-10.7,17.9-11.9c6-1.3,11.6-0.9,14.1,1.9c2.5,2.8,9.8,14.2,13.7,17.6
			s31.9,30.5,38.5,32.4s35.2,0.3,33.6,17c-1.6,16.7-24.9,23.9-66.4,20.1c-41.5-3.8-36.5-13.5-59.8-18.6c-23.3-5-24.9-16.7-20.8-30.8
			c4.1-14.2,20.6-28.2,18.9-32C2175.2,1598.8,2186.9,1606.8,2186.9,1606.8z"/>
		<path class="st0" d="M2057.1,1633.7c0,0,13.3-6,22.1-5.7c8.8,0.3,7.9,5.7,10.1,9c2.2,3.3,23,34.8,28.7,40.5s25.9,11.7,23,25.9
			s-28.4,19.9-59.9,15.8s-47-33.4-52-40.1c-5.1-6.6,12-49.2,17-52.2C2051.1,1623.9,2057.1,1633.7,2057.1,1633.7z"/>
		<path class="st18" d="M2265.4,635c0,0-8.4,30.1-15.3,45c-6.9,14.9-5.7,33.3-5.2,44.5c0.5,11.2,0.3,24.3-3.3,43
			c0,0,1.2,5.7,3.6,15.7C2245.3,783.2,2259.9,743.3,2265.4,635z"/>
	</g>
	<g>
		<path class="st19" d="M1311.1,1686.2c0,0-9.9-15.1-11.6-23.9c-1.6-8.8-6.6-13.9-6.6-13.9s-37.7-5.5-52.2-18.9
			c-14.5-13.4-45.2-50.1-59.6-39.1c-14.5,11,10.5,57.1,25.3,71.1s34.8,38.4,53,36.6C1277.6,1696.2,1302.3,1687.6,1311.1,1686.2z"/>
		<path class="st20" d="M1311.1,1683.9l-18.2-35.5c99.5-18.2,114.1-32.1,131.1-42.6c13.4-8.3,24.6-15.5,28.5-18.8
			c12.6-10.7,62.9-46.4,76.5-59.5c13.6-13.1,29.7-5.1,50.9-4.9c21.2,0.2,98,21.5,121,24.6c23,3,106,18.5,106,18.5
			C1792.3,1605.5,1311.1,1683.9,1311.1,1683.9z"/>
		<path class="st21" d="M1811.7,1564.3c0,0-46.8,6.8-58.9,7.7c-12.3,0.9-82,6.6-115.7,9.8s-99.7,1.3-112.8,7.1
			s-88.8,31.4-113.6,39.4s-185.8,37.5-185.8,37.5s-2.8,21.8,11.5,38.6c0,0,71-6.3,108.4-0.8s102.9-2.9,142.6-20.9
			c39.7-18,102.7-1.6,137.8,10.8c35.2,12.4,169.7,22.3,186.5,18.5s50.3-19.9,74.5-46.3C1910.7,1639.2,1811.7,1564.3,1811.7,1564.3z"
			/>
		<path class="st0" d="M1236.5,1704.3c0,0-6-17-5.4-26c0.6-9-2.2-13.3-2.2-13.3s-36.1-16.2-46.9-32.8s-31.7-59.5-48.4-52.3
			c-16.7,7.1-3.6,58,7.3,75.1c11,17.1,17.8,62.6,35.8,65.3C1194.8,1722.9,1227.6,1703.5,1236.5,1704.3z"/>
		<path class="st21" d="M1917,1534.3c0,0,59.2,134.3-32.7,166.8c-73.3,26-208.3,2.1-208.3,2.1l83.1-130.9L1917,1534.3z"/>
		<path class="st7" d="M1764.7,1027.6c22.5,5,9.1,61.6,24.2,140.7c15.1,79.1,62.8,91.5,62.8,91.5s-21.2-35.1-18.8-71.7
			c1.8-28.7,36.5-106.8,2.2-157.9c-26.5-39.5-73.2-3.6-73.2-3.6L1764.7,1027.6z"/>
		<path class="st4" d="M1798.6,1192.3l-43.8,45.1c-0.4-8.3-3.4-18.3-6.6-26.8c-1.5-4.1-3.1-7.8-4.3-10.7c-1.7-3.8-2.8-6.1-2.8-6.1
			l39.1-41.3L1798.6,1192.3z"/>
		<path class="st3" d="M1746.4,1232.9c0,0-1.7,21.7-13.5,41.7c-11.8,20-31.3,53.2-28.6,74.8c2.8,21.6,11.9,29.4,20.2,37.2
			c8.3,7.8,31.1,63.9,33.8,85.5c2.8,21.6,4.5,66.4-0.7,99.4c0,0,153.6,17.8,169.1-9c0,0-19.1-86.3-28.1-107.9
			c-9-21.6-27.8-151-35.9-173c-8.1-22-27.1-43.3-38.8-58.5c-10.4-13.6-29.3-39-29.3-39L1746.4,1232.9z"/>
		<path class="st4" d="M1727.2,1032.2c-20.3,1.3-63.8,16.7-64.6,70.9c0,0,3.3,14.2,8.1,25.1c4.8,10.9-1.5,45.5,1.3,46.8
			c2.8,1.3,14,2.2,14,2.2s16,35.1,28.7,33.3c12.8-1.8,60.1-17.4,77.6-65.4C1810.1,1097.1,1809.1,1026.7,1727.2,1032.2z"/>
		<path class="st7" d="M1662.7,1103.1c0,0,35.3,18.5,68.3,19.3c33,0.8,60.1,53.7,60.1,53.7s40-89.7-5.8-135.2
			C1739.6,995.5,1648.4,1041.7,1662.7,1103.1z"/>
		<path class="st4" d="M1738.7,1122.1c-0.6-6.3,5.4-16.6,16.7-9.2c11.3,7.4,0.9,38.9-7.9,36.9
			C1738.7,1147.9,1739.3,1128.6,1738.7,1122.1z"/>
		<path class="st10" d="M1775.2,1174.8c-0.6,1-16.7,27.3-27,35.8c-1.5-4.1-3.1-7.8-4.3-10.7
			C1743.9,1199.9,1766.8,1186.2,1775.2,1174.8z"/>
		
			<rect x="1444.4" y="1576.4" transform="matrix(0.9826 -0.1855 0.1855 0.9826 -267.2231 315.7427)" class="st22" width="218.5" height="19"/>
		
			<rect x="1384.4" y="1410.8" transform="matrix(0.8247 -0.5655 0.5655 0.8247 -615.3085 1054.7178)" class="st22" width="19" height="218.5"/>
		<path class="st4" d="M1489,1588.3c-1.1-4.8,0-12.7,15-20.8s47.5-26.4,58.9-26.8s33.9,1.4,38.5,1.3s-7.2,27.2-7.2,27.2L1489,1588.3
			z"/>
		<path class="st4" d="M1596.2,1544.2c0,0,62.6-24.7,72.8-29.6c10.2-4.9,57.6-20.9,61.8-23c4.2-2.1,24-120.5,25.8-150.3
			c1.8-29.8,3.5-92.9,37.2-90.1c33.7,2.8,41.7,24.9,37.5,68.4c-4.2,43.5-29.1,199.2-39.6,204.5s-131.3,32.3-195,45
			C1535.7,1581.2,1596.2,1544.2,1596.2,1544.2z"/>
		<path class="st0" d="M1753.1,1350.6c0,0,48.5,9.1,76.5,11.9c0,0,34.8-99.2-12.6-115C1760.9,1228.7,1748.3,1305.5,1753.1,1350.6z"
			/>
	</g>
	<g>
		<path class="st4" d="M491,973.8c0,0-3.3,15-9.1,30.2c-2.8,7.4-4.2,56.2-3.9,62.5c0.2,5.3,3.8,2.2,5.5-1.3c1-2,4.2-18.9,7.3-27.8
			c2.6-7.5,4.9-10.3,6.2-7.9s3.7,33.8,0.9,47.2c-2.9,13.4,0.1,44.2,7.2,39.8c7-4.5,23.5-60.3,22.2-81.3c-1.4-21-8.9-47.3-8.9-47.3
			L491,973.8z"/>
		<g>
			<path class="st23" d="M525.1,993.6l-44.1-3.9c0,0-5.3-50.3-10.9-98.6c-1.8-15.6-3.7-31-5.4-44.5c0-0.2,0-0.4-0.1-0.6
				c0-0.2,0-0.3-0.1-0.5c-2.2-16.8-4.2-30.4-5.6-37.2c-2.8-13.2-10.4-45.9-15.2-72.8c-1.6-8.8-2.9-18-4-26.9c0,0,0,0,0,0
				c-4.5-35.7-5.7-68.2-5.7-68.2s-39.3-98,18.4-103.7c0,0,11.6,3.8,16.4,8.2c13.3,12.2,30.8,86.9,31.1,99.4
				c0.3,10.2,15.2,112.7,15.4,116.3c0.4,7,3.9,54.5,5.3,75.4C523.9,884.7,525.1,993.6,525.1,993.6z"/>
		</g>
		<g>
			<path class="st5" d="M512.1,1636.8c0,0,23.1,24.3,46.6,29.4c23.5,5.1,39.9,11.6,40.1,25.5s-67.5,23.1-94.4,9.1
				c-40.1-21-44.1-14.6-48.6-25.1s5.3-38.5,5-41.8C460.4,1629.6,512.1,1636.8,512.1,1636.8z"/>
		</g>
		<g>
			<path class="st6" d="M509.5,1625.2c0,0,3.1,11.4,2.6,11.6s-52.9,6.1-51.3-3c1.3-7.4,3.1-15.4,3.1-15.4L509.5,1625.2z"/>
		</g>
		<g>
			<path class="st5" d="M251,1643.1c0,0,17,23.6,39.7,29.1c22.4,5.4,37,15.6,38.1,29.2s-52.9,31.3-90.8,7.5
				c-24.9-15.6-34.2-14.7-39.2-24.7s2.6-37.8,2.1-41C200.3,1639.2,251,1643.1,251,1643.1z"/>
		</g>
		<g>
			<path class="st6" d="M250.3,1631.4c0,0,1.1,11.4,0.7,11.7c-0.4,0.3-50.4,9.1-50.1,0.1c0.2-7.2,3.2-16.1,3.2-16.1L250.3,1631.4z"
				/>
		</g>
		<g>
			<path class="st7" d="M456.6,942.3c0,0,24.3,176.4,34.2,236c11.6,69.7,15.5,127.3,18.8,163.4c4.1,45.4,1.8,277.6,4.7,290.9
				c2.8,13.3-57.4,6.4-57.4,6.4s-44.2-302.7-56.3-351c-11.3-45-42.3-230.5-52.6-218.2c-10.3,12.3-43.6,223.6-51.2,259.1
				c-7.6,35.5-38.4,314.9-38.4,314.9s-51.2,11.1-65.2,0c0,0,3.1-249.1,8-315.7c1.9-25.4-16-303.6,26.8-415.8
				C250.6,852.8,456.6,942.3,456.6,942.3z"/>
		</g>
		<path class="st24" d="M458.7,950.7l2.7,26.5c0,0-74,30-254,30v-30.3L458.7,950.7z"/>
		<path class="st23" d="M460.5,950.2c0,0-132.4,42.5-259.6,25.9c0,0,27.3-122.5,22.2-164.3c-2.1-17.6-5.3-42.8-8.5-68.7
			c-1.5-12.2-3.1-24.6-4.6-36.3c-4.9-39.1-9.1-71.8-9.1-71.8s22.2-86.5,33.6-96.1c11.3-9.6,84.8-21.7,84.8-21.7l66.1,2.1
			c0,0,64.2,13.3,71.9,20c8.3,7.2,21.4,77.7,23.7,97.2c3.5,29.1-7.8,101.5-16,132C456.7,799,475.8,928.8,460.5,950.2z"/>
		<path class="st23" d="M414.4,525.9c0,0,3.9-17.6-51.1-21.6c-55-4.1-92.2,8.3-93.3,24.1c-1,15.8,139.4,55.2,139.4,55.2L414.4,525.9
			z"/>
		<path class="st4" d="M398.1,535.6c0,0-18.5,8.2-78.8-18.4c0,0,1.7-41.3-10.1-80c-11.8-38.6,80.9,51.5,80.9,51.5
			c-0.9,0.6-1.1,3.9-0.7,8.5c0,0.5,0.1,0.9,0.1,1.4c0.5,4.6,1.5,10.2,3,15.9C395.8,527.5,395,525.3,398.1,535.6z"/>
		<g>
			<g>
				<path class="st25" d="M283.2,1038.1c-28.3,0-51.3-25.5-51.3-56.9s23-56.9,51.3-56.9s51.3,25.5,51.3,56.9
					C334.5,1012.6,311.5,1038.1,283.2,1038.1z M283.2,936.9c-21.7,0-39.4,19.9-39.4,44.3s17.7,44.3,39.4,44.3s39.4-19.9,39.4-44.3
					S304.9,936.9,283.2,936.9z"/>
			</g>
			<rect x="155.1" y="1157.2" class="st26" width="256.2" height="127.8"/>
			<path class="st25" d="M166.9,1308.9c0,0-1.1-28.7,0-182.8C168,966,284.5,968.4,284.5,968.4s116.5-2.4,117.7,157.7
				c1.1,154.1,0,182.8,0,182.8H166.9z"/>
			<rect x="193.5" y="1157.2" class="st26" width="182.1" height="127.8"/>
			<rect x="193.5" y="1157.2" class="st27" width="182.1" height="35.5"/>
		</g>
		<path class="st28" d="M263.4,637.3c-6.7,26.3-48.8,105.8-48.8,105.8c-1.5-12.2-3.1-24.6-4.6-36.3
			C232.2,675.9,263.4,637.3,263.4,637.3z"/>
		<path class="st28" d="M470.1,891.2c-1.8-15.6-3.7-31-5.4-44.5c0-0.2,0-0.4-0.1-0.6c0-0.2,0-0.3-0.1-0.5
			c-1.4-12.7-1.2-66.2,1.8-82.6c3.1-16.6,13.4-81.3,13.4-81.3C482.2,749.6,470.1,891.2,470.1,891.2z"/>
		<g>
			<path class="st4" d="M397.9,317.9c0,0,49.8,14.2,37.7,106.9c-13.4,102.2-86.3,74.9-104.8,55.9c-18.5-18.9-33-59.9-33.9-90.7
				C296.1,359.1,301.9,276,397.9,317.9z"/>
		</g>
		<g>
			<path class="st29" d="M439,384.9c0,0-1.7-34.1-44-27.1c-42.3,7-83,40.1-83.3,92.7c0,0-58.5-95.6-12.1-135.3
				C346,275.6,439,292.2,439,384.9z"/>
		</g>
		<g>
			<path class="st30" d="M384.2,360.2c0,0,45.5,43.6,58.3,44.8C442.5,404.9,449.5,341.6,384.2,360.2z"/>
		</g>
		<path class="st4" d="M323.9,404.9c-2.9-9.3-13.6-21.7-18.6-7.9s8.8,45.3,14.6,40.8C325.7,433.4,329.2,421.9,323.9,404.9z"/>
		<path class="st10" d="M392.4,514.6c-49.8,2.7-67.5-41-67.5-41c27.7,32.7,63.7,23.8,64.4,23.7c0,0.5,0.1,0.9,0.1,1.4
			C389.9,503.2,390.9,508.9,392.4,514.6z"/>
		<path class="st31" d="M287.8,940.7c0,0,115.7-7.5,152.9-24.3c0,0,3.6-83.5,4.1-95.4L421,790.5l-100.8,8.3l-37,34.1L287.8,940.7z"
			/>
		<g>
			<g>
				<g>
					<g>
						<g>
							<path class="st4" d="M258.7,961c0,0-3.3-4.9-3.7-7.8c0,0-0.3-5.3-0.8-9c-0.1-1.2-0.3-2.2-0.5-2.9c-0.7-2.7-3.1-8.5-3-15.6
								c0.1-7,8.5-37.3,8.5-37.3l17.6-0.1l16.5-2.5c0,0,21.6,37.4,22.2,44c0.1,0.6,0.1,1.3,0.1,1.9c0,5.6-2.4,9.8-2.7,12.8
								c-0.1,1.1-2.1,11.8-5,13.3c-3.9,2.2-7.6,2.1-10.3,0.7c0,0-7.9,3.9-13.7,2.6c0,0-7.2,3.9-13.9,0.2
								C270,961.2,262.3,964.3,258.7,961z"/>
						</g>
					</g>
				</g>
			</g>
		</g>
		<path class="st23" d="M280,541.4c7.6,4.8,12.4,26.6-1.9,64.5c-15.4,40.7-32.8,55.9-40.4,64.6c-7.5,8.7-50.3,63.2-46.4,72.3
			c3.9,9.1,45.8,70.9,48,75.7s56.8,68,56.8,68l-50.4,30c0,0-100.4-116.6-108.3-128.4c-7.9-11.8-33.1-38.2-15.4-70.3
			c17.9-32.6,54-110.1,58.8-115.8C185.6,596.3,226.1,507,280,541.4z"/>
	</g>
</g>
</svg>
