<?xml version="1.0" encoding="utf-8"?>
<!-- Generator: Adobe Illustrator 23.0.5, SVG Export Plug-In . SVG Version: 6.00 Build 0)  -->
<svg version="1.1" id="Capa_1" xmlns="http://www.w3.org/2000/svg" xmlns:xlink="http://www.w3.org/1999/xlink" x="0px" y="0px"
	 viewBox="0 0 1109 939" style="enable-background:new 0 0 1109 939;" xml:space="preserve">
<style type="text/css">
	.st0{fill:#856955;}
	.st1{fill:#9E7962;}
	.st2{fill:#ACDD8E;}
	.st3{opacity:0.2;fill:#3E3563;}
	.st4{fill:#FFFFFF;}
</style>
<g>
	<path class="st0" d="M196.4,764.5h724.6c2.2,0,3.9-1.7,3.9-3.9V162.9c0-2.2-1.7-3.9-3.9-3.9H196.4c-2.2,0-3.9,1.7-3.9,3.9v597.7
		C192.5,762.8,194.3,764.5,196.4,764.5z"/>
	<path class="st1" d="M936.2,781H173.8c-2.1,0-3.8-1.7-3.8-3.8v-43.5c0-2.1,1.7-3.8,3.8-3.8h762.5c2.1,0,3.8,1.7,3.8,3.8v43.5
		C940,779.3,938.3,781,936.2,781z"/>
	<path class="st2" d="M216.5,717h688.6c2,0,3.6-1.6,3.6-3.6V183.8c0-2-1.6-3.6-3.6-3.6H216.5c-2,0-3.6,1.6-3.6,3.6v529.6
		C212.9,715.4,214.5,717,216.5,717z"/>
	<path class="st3" d="M908.7,705.3v-97c-9,26.7-20.5,48.9-37.4,53.9c-56,16.7-603.7,22-622.3,11.1c-40.1-23.6-20.9-365-22.7-493.1
		h-4.5c-4.9,0-8.9,5.2-8.9,11.7v513.4c0,6.5,4,11.7,8.9,11.7h678C904.7,717,908.7,711.8,908.7,705.3z"/>
	<path class="st4" d="M221.8,730.3h118.9c3.1,0,5.5-2.5,5.5-5.5v-25c0-3.1-2.5-5.5-5.5-5.5H221.8c-3.1,0-5.5,2.5-5.5,5.5v25
		C216.3,727.8,218.8,730.3,221.8,730.3z"/>
</g>
<g>
	<g>
		<path class="st2" d="M401.8,259.8c-7,21.9-14,43.8-20.8,65.8c-6.7,22-13.2,44-19.1,66.2c-3.3,12.4-6.5,24.9-9.4,37.4
			c-0.3,1.4,1.4,2.6,2.5,1.5c18.8-19,37.6-38,56.4-57.1c9.3-9.5,18.7-18.9,28-28.4c1.1-1.2,2.3-2.3,3.4-3.5c0.8-0.8,1.8-1.9,3.1-2
			c2.2-0.3,3.4,2.6,4.1,4.2c2.7,6.2,5.2,12.5,7.7,18.7c5.8,13.9,11.5,27.8,17.3,41.7c0.7,1.8,3.6,1,2.9-0.8
			c-5.4-12.9-10.7-25.8-16.1-38.7c-2.6-6.4-5.3-12.8-7.9-19.1c-1.7-4.1-4.4-11.1-10.2-8.4c-2.7,1.3-4.8,4.1-6.8,6.1
			c-2.5,2.5-4.9,5-7.4,7.4c-4.9,5-9.8,9.9-14.7,14.9c-9.7,9.8-19.4,19.6-29.1,29.4c-11,11.1-22,22.2-32.9,33.3
			c0.8,0.5,1.7,1,2.5,1.5c5.2-22.4,11.2-44.6,17.5-66.6c6.4-22.1,13.1-44,20.1-66c3.9-12.3,7.8-24.5,11.7-36.8
			C405.3,258.8,402.4,258,401.8,259.8L401.8,259.8z"/>
	</g>
</g>
<g>
	<g>
		<path class="st4" d="M472.4,311.4c0.3,6,0.1,12.1-0.7,18.1c0,0.3-0.1,0.5-0.1,0.8c-0.2,1.4,0.2-1.4,0,0c-0.1,0.7-0.2,1.3-0.3,2
			c-0.3,1.6-0.5,3.2-0.9,4.8c-0.6,2.9-1.3,5.8-2.1,8.6c-0.8,2.8-1.8,5.7-2.8,8.4c-0.2,0.6-0.5,1.3-0.7,1.9c-0.1,0.4-0.3,0.7-0.5,1.1
			c-0.1,0.3-0.5,1.6,0,0.1c-0.4,1.4-1.2,2.7-1.8,4.1c-2.5,5.4-5.5,10.5-8.8,15.4c-0.8,1.2-1.7,2.4-2.6,3.6c-0.2,0.3-1.5,2.1-0.5,0.7
			c-0.5,0.7-1.1,1.4-1.6,2c-1.9,2.3-3.9,4.6-6,6.8c-2.1,2.1-4.2,4.2-6.4,6.1c-1,0.9-2,1.7-3.1,2.6c-0.3,0.3-0.6,0.5-0.9,0.8
			c-0.3,0.2-1.4,1-0.1,0.1c-0.7,0.5-1.3,1-1.9,1.5c-4.8,3.5-9.8,6.6-15.1,9.3c-1.3,0.7-2.6,1.3-4,1.9c-0.6,0.3-1.2,0.6-1.8,0.8
			c-0.4,0.2-0.7,0.3-1.1,0.5c-1.3,0.6,1.3-0.5-0.1,0c-2.7,1.1-5.5,2.2-8.3,3.1c-3.2,1-6.4,1.9-9.7,2.7c-1.6,0.4-3.3,0.7-4.9,1
			c-0.9,0.2-1.7,0.3-2.6,0.4c-0.4,0.1-2.2,0.5-2.4,0.4c0.3,0,0.5-0.1,0.8-0.1c-0.3,0-0.5,0.1-0.8,0.1c-0.4,0-0.8,0.1-1.2,0.1
			c-0.8,0.1-1.6,0.2-2.4,0.2c-1.7,0.2-3.5,0.3-5.2,0.3c-3.4,0.1-6.7,0.1-10.1-0.1c-3.1-0.2-6.1,2.9-6,6c0.2,3.4,2.6,5.8,6,6
			c25.2,1.3,50.9-6,71.7-20.1c21.4-14.5,37.2-35.8,45.3-60.3c4.4-13.4,6.5-27.7,5.8-41.7c-0.1-3.1-2.7-6.1-6-6
			C475.3,305.5,472.3,308,472.4,311.4L472.4,311.4z"/>
	</g>
</g>
<g>
	<g>
		<path class="st4" d="M610.3,309.1c-2.4,24.8-4.3,51.4,8.2,74c11.6,20.9,33,34.2,55.2,41.3c14.3,4.6,29.2,6.8,44,8.6
			c1.4,0.2,3.3-0.8,4.2-1.8c1-1,1.8-2.7,1.8-4.2c-0.1-1.6-0.6-3.2-1.8-4.2c-1.2-1.1-2.6-1.6-4.2-1.8c-1.5-0.2-3.1-0.4-4.6-0.6
			c-0.5-0.1-0.9-0.1-1.4-0.2c-0.3,0-1.2-0.1,0.2,0c-0.9-0.1-1.8-0.3-2.7-0.4c-3-0.4-6.1-0.9-9.1-1.5c-6.2-1.1-12.4-2.4-18.4-4.2
			c-3.1-0.9-6.2-1.9-9.2-3c-1.4-0.5-2.7-1-4.1-1.6c-0.4-0.1-0.7-0.3-1.1-0.4c-1-0.4,0,0,0.2,0.1c-0.8-0.3-1.6-0.7-2.3-1
			c-4.8-2.2-9.5-4.8-14-7.7c-1.1-0.7-2.1-1.5-3.2-2.2c-0.4-0.3-1.3-0.7-1.6-1.2c0.3,0.6,0.8,0.7,0.3,0.2c-0.4-0.3-0.7-0.6-1.1-0.8
			c-2.1-1.7-4-3.4-5.9-5.3c-1.9-1.9-3.7-3.8-5.3-5.8c-0.2-0.2-0.4-0.5-0.6-0.8c-0.7-0.9,0.2,0.3,0.2,0.3c-0.2,0-1-1.3-1.1-1.5
			c-0.8-1.1-1.6-2.3-2.4-3.5c-1.4-2.2-2.7-4.5-3.8-6.9c-0.3-0.7-0.6-1.3-0.9-2c0.6,1.6-0.2-0.6-0.4-1c-0.6-1.5-1.1-3-1.5-4.5
			c-0.8-2.7-1.5-5.5-2.1-8.4c-0.3-1.4-0.4-2.9-0.7-4.3c0.4,1.6,0,0.3,0-0.1c0-0.3-0.1-0.6-0.1-0.9c-0.1-0.9-0.2-1.7-0.3-2.6
			c-1.2-13.5,0-27,1.3-40.4c0.3-3.1-3-6.1-6-6C612.8,303.3,610.6,305.8,610.3,309.1L610.3,309.1z"/>
	</g>
</g>
<g>
	<g>
		<path class="st4" d="M412.9,503c8.1,16.5,20.6,30.5,35.3,41.4c14.7,11,32,18.7,49.8,22.7c21.6,4.8,43.9,4.6,65.6,0.7
			c10.5-1.9,20.8-4.7,30.9-8.3c9.7-3.5,19.2-7.6,27.9-13.1c8.9-5.6,16.8-12.6,22.9-21.2c6-8.5,9.9-18.4,10.8-28.7
			c0.2-2.3,0.2-4.6,0.1-6.9c-0.2-3.1-2.6-6.2-6-6c-3.1,0.1-6.2,2.6-6,6c0.1,2.3,0.1,4.6-0.1,6.9c0,0.3-0.1,0.5-0.1,0.8
			c-0.1,1.1,0-0.3,0.1-0.4c-0.1,0.6-0.2,1.2-0.3,1.8c-0.2,1.1-0.4,2.2-0.7,3.4c-0.6,2.2-1.3,4.4-2.2,6.5c-0.4,1,0.1-0.2,0.1-0.3
			c-0.1,0.2-0.2,0.5-0.3,0.7c-0.3,0.6-0.5,1.1-0.8,1.7c-0.5,1-1,2.1-1.6,3.1c-1.1,2-2.4,4-3.8,5.9c-0.2,0.3-0.4,0.5-0.6,0.8
			c-0.5,0.7,0.7-0.9,0.2-0.2c-0.3,0.4-0.7,0.9-1,1.3c-0.7,0.9-1.5,1.8-2.3,2.6c-1.6,1.8-3.4,3.5-5.2,5.1c-0.8,0.7-1.7,1.5-2.6,2.2
			c-0.2,0.2-0.4,0.3-0.7,0.5c-0.6,0.5,0.9-0.7,0.2-0.2c-0.6,0.4-1.1,0.8-1.7,1.3c-3.9,2.8-8,5.3-12.2,7.5c-2.1,1.1-4.3,2.2-6.5,3.1
			c-0.5,0.2-1,0.5-1.6,0.7c-0.3,0.1-0.5,0.2-0.8,0.3c-0.2,0.1-1.1,0.4-0.3,0.1c0.9-0.4-0.4,0.2-0.5,0.2c-0.3,0.1-0.5,0.2-0.8,0.3
			c-0.6,0.2-1.2,0.5-1.8,0.7c-9.5,3.7-19.4,6.7-29.4,8.9c-2.5,0.6-5.1,1.1-7.6,1.5c-1.3,0.2-2.6,0.4-3.8,0.6
			c-0.6,0.1-1.2,0.2-1.8,0.3c-0.2,0-0.8,0-0.9,0.1c0.2,0,0.5-0.1,0.7-0.1c-0.2,0-0.5,0.1-0.7,0.1c-5.2,0.7-10.4,1.1-15.7,1.3
			c-5.2,0.2-10.3,0.1-15.5-0.2c-2.6-0.2-5.1-0.4-7.7-0.7c-0.6-0.1-1.2-0.1-1.8-0.2c-0.3,0-1.2-0.1,0.2,0c-0.3,0-0.6-0.1-0.9-0.1
			c-1.3-0.2-2.7-0.4-4-0.6c-9.1-1.6-18-4.1-26.5-7.5c-0.5-0.2-0.9-0.4-1.4-0.6c-0.3-0.1-1-0.5,0.4,0.2c-0.2-0.1-0.5-0.2-0.7-0.3
			c-1-0.5-2.1-0.9-3.1-1.4c-1.9-0.9-3.9-1.9-5.8-2.9c-3.8-2-7.5-4.2-11.1-6.6c-1.8-1.2-3.5-2.4-5.2-3.7c-0.4-0.3-0.8-0.6-1.2-0.9
			c-0.8-0.6,0.2,0.2,0.3,0.2c-0.2-0.2-0.4-0.3-0.6-0.5c-0.9-0.7-1.8-1.4-2.6-2.1c-3.3-2.7-6.4-5.6-9.3-8.7c-1.5-1.5-2.9-3.1-4.3-4.7
			c-0.6-0.8-1.3-1.5-1.9-2.3c-0.4-0.4-0.7-0.9-1-1.3c-0.5-0.6,0.7,1,0.3,0.3c-0.2-0.3-0.4-0.5-0.6-0.7c-2.5-3.4-4.9-7-7-10.7
			c-1.1-1.9-2.1-3.7-3-5.7c-1.4-2.8-5.6-3.8-8.2-2.2C412.2,496.7,411.4,500,412.9,503L412.9,503z"/>
	</g>
</g>
<g>
	<g>
		<path class="st4" d="M641.1,471.2c1.5,0.3,3.1,0.7,4.5,1.2c0.3,0.1,0.7,0.2,1,0.4c0.2,0.1,1.6,0.6,0.6,0.2c-1-0.4,0.4,0.2,0.6,0.3
			c0.3,0.2,0.7,0.3,1,0.5c1.4,0.7,2.7,1.5,4,2.4c0.3,0.2,0.6,0.4,0.9,0.6c0.5,0.3,0.9,1-0.1-0.1c0.5,0.6,1.2,1,1.8,1.5
			c1.1,1,2.2,2.1,3.2,3.2c0.2,0.3,0.5,0.5,0.7,0.8c0.1,0.1,1.1,1.4,0.4,0.5c-0.7-0.8,0.3,0.4,0.4,0.6c0.2,0.3,0.4,0.6,0.6,0.9
			c0.9,1.3,1.7,2.7,2.3,4.1c0.2,0.3,0.3,0.7,0.5,1c0.1,0.2,0.1,0.3,0.2,0.5c0.2,0.4,0.1,0.2-0.3-0.6c0.1,0.8,0.6,1.7,0.9,2.4
			c1,3,4.2,5.2,7.4,4.2c3-1,5.2-4.2,4.2-7.4c-4.7-14.3-17-25.8-31.8-28.8c-3.1-0.6-6.6,0.9-7.4,4.2
			C636.2,466.8,637.8,470.5,641.1,471.2L641.1,471.2z"/>
	</g>
</g>
<g>
	<g>
		<path class="st4" d="M504,443.5c-5.9,16.4,1.9,34.9,15.4,45c6.7,5,15.3,7.6,23.6,7c9.1-0.6,17.5-4.3,24.5-10
			c7.3-5.9,12.9-14.7,14.4-24c0.3-1.6,0.3-3.1-0.6-4.6c-0.7-1.2-2.2-2.4-3.6-2.8c-2.9-0.7-6.8,0.9-7.4,4.2c-0.3,1.8-0.7,3.6-1.3,5.3
			c-0.1,0.4-0.3,0.8-0.5,1.3c-0.1,0.4-0.5,0.8,0.2-0.5c-0.1,0.2-0.2,0.4-0.3,0.6c-0.4,0.8-0.8,1.6-1.2,2.4c-0.4,0.7-0.9,1.5-1.3,2.2
			c-0.2,0.4-0.5,0.8-0.8,1.1c-0.3,0.4-1.4,1.5-0.2,0.3c-1.3,1.3-2.4,2.8-3.7,4c-0.6,0.6-1.3,1.2-1.9,1.7c-0.2,0.1-1.4,1.2-0.6,0.5
			c0.8-0.6-0.5,0.4-0.8,0.5c-1.5,1-3.1,2-4.7,2.8c-0.4,0.2-0.7,0.4-1.1,0.5c-0.2,0.1-1.7,0.8-0.7,0.3c0.9-0.4-0.3,0.1-0.5,0.2
			c-0.5,0.2-1.1,0.4-1.6,0.6c-1.7,0.5-3.4,1-5.1,1.2c-1.4,0.2,1.4-0.1-0.1,0c-0.4,0-0.8,0.1-1.2,0.1c-1,0.1-1.9,0.1-2.9,0.1
			c-0.8,0-1.7-0.1-2.5-0.1c-0.2,0-0.5-0.1-0.7-0.1c1.5,0,1,0.2,0.6,0.1c-0.5-0.1-1-0.2-1.5-0.3c-1.7-0.4-3.4-0.9-5-1.5
			c-0.7-0.3,1.2,0.6,0.5,0.2c-0.1-0.1-0.3-0.1-0.4-0.2c-0.4-0.2-0.8-0.4-1.2-0.6c-0.8-0.4-1.6-0.9-2.4-1.4c-0.7-0.4-1.3-0.9-2-1.4
			c-0.3-0.2-0.7-0.7,0.4,0.3c-0.2-0.1-0.3-0.3-0.5-0.4c-0.3-0.3-0.7-0.6-1-0.8c-1.3-1.1-2.5-2.4-3.7-3.7c-0.3-0.3-0.5-0.7-0.8-1
			c1.2,1.3,0.2,0.3,0-0.1c-0.5-0.7-1-1.4-1.5-2.2c-0.9-1.5-1.7-3-2.4-4.6c-0.4-0.9,0.2,0.5,0.2,0.5c-0.1-0.3-0.2-0.5-0.3-0.8
			c-0.2-0.5-0.3-0.9-0.5-1.4c-0.3-0.9-0.6-1.9-0.8-2.8c-0.2-0.9-0.4-1.9-0.6-2.9c-0.1-0.4,0-1.1,0.1,0.6c0-0.3-0.1-0.5-0.1-0.8
			c0-0.5-0.1-1-0.1-1.4c-0.1-1-0.1-1.9,0-2.9c0-0.4,0-0.9,0.1-1.3c0-0.3,0.2-1.9,0.1-0.8c-0.2,1.1,0.1-0.5,0.2-0.8
			c0.1-0.5,0.2-1,0.3-1.4c0.2-1,0.6-2,0.9-3c1.1-3-1.2-6.7-4.2-7.4C508,438.5,505.2,440.3,504,443.5L504,443.5z"/>
	</g>
</g>
</svg>
